<?xml version="1.0" encoding="utf-8"?>
<!-- Generator: Adobe Illustrator 16.0.0, SVG Export Plug-In . SVG Version: 6.00 Build 0)  -->
<!DOCTYPE svg PUBLIC "-//W3C//DTD SVG 1.1//EN" "http://www.w3.org/Graphics/SVG/1.1/DTD/svg11.dtd">
<svg version="1.1" id="Layer_1" xmlns="http://www.w3.org/2000/svg" xmlns:xlink="http://www.w3.org/1999/xlink" x="0px" y="0px"
	 width="1920px" height="695.219px" viewBox="0 424.262 1920 695.219" enable-background="new 0 424.262 1920 695.219"
	 xml:space="preserve">
<g>
	<g>
		<path fill="#333F48" d="M518.424,680.852c0,0,1.961-56.642,90.227-48.083c0,0,57.301,2.628,63.23,52.032
			c0,0-5.271,26.351-59.286,38.2C612.594,723.001,540.151,711.803,518.424,680.852z"/>
	</g>
	<g>
		<path fill="#A8BBD5" d="M509.867,678.048c0,0-82.628,63.733-95.613,236.062c0,0,3.542,14.167,29.51,14.167
			c0,0,31.875-11.809,43.66-10.626c11.809,1.183,193.579,11.803,193.579,11.803l35.403,1.183c0,0,48.399,4.71,47.212-16.531
			c0,0-3.542-145.173-84.98-231.333c0,0-35.415,33.044-51.929,35.408C626.71,718.18,574.782,728.807,509.867,678.048z"/>
	</g>
	<g>
		<path fill="#A8BBD5" d="M445.461,906.99l-5.316,43.382c0,0-10.632,7.087,43.384,8.856c0,0,61.084,3.543,64.624-21.253
			c0,0,22.141-13.28,61.973-11.509c0,0-7.079,23.018,16.814,24.789l78.799,3.546c0,0,12.397,6.198,9.745-39.832l-0.899-11.52
			L445.461,906.99z"/>
	</g>
	<g>
		<path fill="#902A2A" d="M454.236,959.881l3.022,5.667l-31.736,1.516c0,0-9.826-1.516-6.043,18.515l102.797-0.38l2.272-17.004
			l8.684-0.755v-11.336L454.236,959.881z"/>
	</g>
	<g>
		<polygon fill="#902A2A" points="622.444,950.055 623.942,966.685 634.148,968.575 634.528,986.33 737.719,985.961 
			736.576,968.195 700.297,967.815 701.046,953.458 		"/>
	</g>
	<g>
		<path fill="#902A2A" d="M479.1,710.454c0,0-7.968-10.622-13.273-2.652c0,0-37.191,48.683-26.569,61.08l6.906,6.383l33.823-68.356"
			/>
	</g>
	<g>
		<path fill="#902A2A" d="M441.92,788.359c0,0-12.407-3.535-15.937,3.539c0,0-15.062,22.131-11.51,59.316l12.385,3.54
			C426.859,854.755,434.841,796.333,441.92,788.359z"/>
	</g>
	<g>
		<path fill="#902A2A" d="M697.771,703.373l11.509-3.541c0,0,23.019,12.398,30.099,25.676c0,0,5.317,20.355,7.093,29.211
			c0,0,11.497,12.397-13.297,15.049C733.175,769.768,706.626,714.876,697.771,703.373z"/>
	</g>
	<g>
		<path fill="#902A2A" d="M734.075,780.396c0,0,28.323-11.514,35.402-0.894l-0.875,6.199l1.777,42.495
			c0,0,0.875,16.825-17.717,17.713C752.662,845.909,742.03,783.043,734.075,780.396z"/>
	</g>
	<g>
		<path fill="#A8BBD5" d="M721.815,708.844c0,0,79.675-34.521,67.291-91.166c0,0-23.03-43.36-74.37-55.745
			c0,0,10.621-12.391,21.254-38.938c0,0,134.508,53.105,90.26,150.453c0,0-61.961,65.496-77.876,70.807
			C748.374,744.254,739.518,726.547,721.815,708.844z"/>
	</g>
	<g>
		<path fill="#A8BBD5" d="M735.989,522.994c0,0,3.758-45.05-50.651-55.37l-11.255,24.383c0,0,33.765,26.265,24.38,40.339
			c0,0-4.683,12.194-10.312,10.32c-5.627-1.885-23.445-3.765-26.258-18.769l-11.267,20.642c0,0,24.402,38.455,48.78,23.445
			C699.408,567.985,722.83,562.411,735.989,522.994z"/>
	</g>
	<g>
		<path fill="#A8BBD5" d="M883.23,727.48c0,0-44.33,2.376-52.761-52.273l28.911-12.656c0,0,20.088,36.699,34.182,27.757
			c0,0,12.131-4.318,10.459-9.986c-1.673-5.686-2.964-23.536-17.586-26.807l20.597-10.609c0,0,36.972,25.538,21.497,49.426
			C928.527,692.331,922.323,715.557,883.23,727.48z"/>
	</g>
	<g>
		<path fill="#A8BBD5" d="M382.15,595.139c0,0,43.995,0.935,51.26-54.281l-24.275-9.745c0,0-23.814,35.525-37.975,27.001
			c0,0-12.085-3.938-10.552-9.698c1.534-5.76,2.457-23.751,16.906-27.521l-20.63-9.993c0,0-36.166,26.893-20.318,50.396
			C336.564,561.31,343.159,584.442,382.15,595.139z"/>
	</g>
	<g>
		<path fill="#A8BBD5" d="M256.231,900.589c0,0-26.755,34.931,13.469,73.424l22.233-13.813c0,0-14.588-40.207,0.646-46.596
			c0,0,10.333-7.42,14.069-2.773s17.701,16.023,12.201,29.902l20.25-10.726c0,0-0.322-45.055-28.623-46.191
			C310.467,883.811,287.898,875.465,256.231,900.589z"/>
	</g>
	<g>
		<path fill="#A8BBD5" d="M770.942,832.369c0,0,190.404,34.707,151.012-116.306l-3.76-7.508c0,0-5.615,19.708-41.262,17.823
			c0,0,23.445,47.84-14.069,60.035c0,0-31.609,12.311-91.311,0.52L770.942,832.369z"/>
	</g>
	<g>
		<path fill="#A8BBD5" d="M338.316,571.735c0,0-93.411,150.031,76.157,279.479c0,0-5.812-30.93,5.443-53.435
			c0,0-76.92-53.474-62.85-151.012l15.938-52.523C373.004,594.245,347.691,580.171,338.316,571.735z"/>
	</g>
	<g>
		<path fill="#A8BBD5" d="M465.826,707.802c0,0-67.496-13.192-104.999-8.511c0,0,4.683,37.531,14.992,43.148
			c0,0,51.595-1.875,60.982,4.688L465.826,707.802z"/>
	</g>
	<g>
		<path fill="#A8BBD5" d="M312.992,712.42c0,0-102.244,26.271-54.408,181.96c0,0,29.084-15.944,39.393-13.131
			c0,0-21.564-69.398,8.441-113.485l20.631-14.075C327.049,753.688,318.619,712.42,312.992,712.42z"/>
	</g>
	<g>
		<path fill="#FFFFFF" d="M582.727,654.638c2.376,0,4.29,6.481,4.29,14.485c0,7.998-1.914,14.473-4.29,14.473
			c-2.375,0-4.302-6.475-4.302-14.473C578.425,661.119,580.352,654.638,582.727,654.638z"/>
	</g>
	<g>
		<path fill="#FFFFFF" d="M619.169,654.638c2.364,0,4.29,6.481,4.29,14.485c0,7.998-1.926,14.473-4.29,14.473
			c-2.388,0-4.313-6.475-4.313-14.473C614.855,661.119,616.781,654.638,619.169,654.638z"/>
	</g>
	<g>
		<path fill="#808C9A" d="M511.551,677.518c0,0-83.493,52.76-94.76,234.465l0,0c0,0,96.096-10.507,173.431-3.759V720.521
			C590.223,720.521,535.732,708.09,511.551,677.518"/>
	</g>
	<g>
		<path fill="#808C9A" d="M442.105,909.571l-2.792,17.426c0,0-26.316,3.505-21.415-10.628c4.9-14.144,0,0,0,0
			S411.845,909.404,442.105,909.571"/>
	</g>
	<g>
		<path fill="#808C9A" d="M717.606,907.22c-0.484,4.757,0.658,25.26,0.658,25.26s45.965-1.82,42.68-16.41c-3.287-14.599,0,0,0,0
			S748.88,903.961,717.606,907.22"/>
	</g>
	<g>
		<path fill="#808C9A" d="M680.68,476.664c0,0,56.809,41.948,9.272,66.678l-0.517,0.289c0,0,24.562-17.672,3.286-32.947
			l-16.573-18.556l7.357-15.464"/>
	</g>
	<g>
		<path fill="#808C9A" d="M731.397,537.617c0,0,131.397,67.313,57.695,142.427l-53.705,46.438l-16.444,10.963l-19.903-31.223
			c0,0,2.19-7.047,11.403-6.338c9.215,0.703,0,0,0,0l15.8,7.894c0,0,53.325-40.996,60.023-52.546c6.69-11.538,0,0,0,0
			s11.327-14.876,2.838-37.555c0,0-29.061-43.931-69.446-57.401l-4.497-3.13L731.397,537.617"/>
	</g>
	<g>
		<path fill="#808C9A" d="M744.015,803.95l24.343,2.79l3.218,5.641c0,0,155.474,29.815,128.087-85.385l-2.41-4.836
			c0,0-14.509,5.639-18.532,3.223c0,0,17.722,44.307-9.676,58.001c0,0-21.52,18.088-100.457,2.784c0,0,0.38-15.846-28.358-7.18
			L744.015,803.95z"/>
	</g>
	<g>
		<path fill="#808C9A" d="M906.108,685.1c0,0,0.808,26.582-33.834,15.311l-31.414-32.221l18.52-5.639l22.558,28.996
			C881.938,691.547,891.601,693.969,906.108,685.1z"/>
	</g>
	<g>
		<path fill="#808C9A" d="M462.009,734.002l-11.74-3.914l-2.354,4.698c0,0-33.614-15.644-81.323-9.381
			c0,0-9.203-18.584-5.766-26.114c0,0,75.373-5.956,101.967,8.902c0,0,7.6-7.217,16.306,2.256
			C479.1,710.448,464.351,726.184,462.009,734.002z"/>
	</g>
	<g>
		<path fill="#808C9A" d="M320.464,733.223c0,0-70.392,11.729-40.685,152.501l-21.115,11.728c0,0-17.979-50.828-10.16-103.23
			c0,0,10.887-70.529,64.488-81.803l5.12,2.035L320.464,733.223z"/>
	</g>
	<g>
		<path fill="#808C9A" d="M276.655,963.149c0,0-25.267-64.764,29.995-52.32c0,0-15.915-5.547-20.609,6.965
			c0,0-3.908,19.542,4.694,39.106l-11.74,9.381L276.655,963.149z"/>
	</g>
	<g>
		<path fill="#808C9A" d="M350.172,586.189c0,0-68.167,123.717,64.901,237.758l-0.771,6.25c0,0,12.512,5.482,11.727,9.381
			c-0.784,3.911-2.353,14.082-2.353,14.082h-10.159l-0.773-5.467c0,0-69.607-53.191-84.473-99.318c0,0-30.503-72.746-10.159-128.267
			l19.547-46.145L350.172,586.189z"/>
	</g>
	<g>
		<path fill="#808C9A" d="M361.115,517.373c0,0-24.251,43.015,8.615,46.93c0,0-15.661-7.04-8.615-26.593l15.648-10.95
			L361.115,517.373z"/>
	</g>
	<g>
		<path fill="#808C9A" d="M713.638,910.575c0,0-134.13-0.404-163.339,23.04l-2.884,11.518c0,0-10.678,8.025-25.485,8.025
			l-49.381,1.856c0,0-22.51-0.777-23.537-6.435c-1.038-5.657,1.557-35.797,1.557-35.797l69.389-5.056c0,0,185.458-2.9,193.681-1.673
			V910.575L713.638,910.575z"/>
	</g>
	<g>
		<path fill="#808C9A" d="M484.404,961.599c0,0-6.296-2.098-4.728,7.358h-12.869c0,0-3.414-4.462-2.1,16.555
			c0,0-46.509,1.313-46.243,0.523c0.253-0.795,0-18.652,0-18.652l35.99-1.057l1.315-7.099L484.404,961.599z"/>
	</g>
	<g>
		<path fill="#808C9A" d="M697.286,714.923c1.729,0,3.138,1.4,3.138,3.147c0,1.73-1.408,3.143-3.138,3.143
			c-1.741,0-3.136-1.412-3.136-3.143C694.149,716.323,695.544,714.923,697.286,714.923z"/>
	</g>
	<g>
		<path fill="#808C9A" d="M687.231,702.346c1.729,0,3.136,1.414,3.136,3.148c0,1.736-1.406,3.137-3.136,3.137
			c-1.73,0-3.137-1.4-3.137-3.137C684.094,703.76,685.5,702.346,687.231,702.346z"/>
	</g>
	<g>
		<path fill="#808C9A" d="M707.342,735.04c1.741,0,3.136,1.4,3.136,3.136c0,1.736-1.395,3.136-3.136,3.136
			c-1.741,0-3.149-1.4-3.149-3.136S705.601,735.04,707.342,735.04z"/>
	</g>
	<g>
		<path fill="#808C9A" d="M753.031,729.965c1.315,0,2.366,1.05,2.366,2.348c0,1.309-1.05,2.363-2.366,2.363
			c-1.29,0-2.351-1.055-2.351-2.363C750.681,731.015,751.742,729.965,753.031,729.965z"/>
	</g>
	<g>
		<ellipse fill="#808C9A" cx="789.602" cy="828.501" rx="2.361" ry="2.353"/>
	</g>
	<g>
		<path fill="#808C9A" d="M808.479,828.502c1.303,0,2.353,1.061,2.353,2.363c0,1.305-1.05,2.348-2.353,2.348
			c-1.292,0-2.353-1.043-2.353-2.348C806.126,829.562,807.186,828.502,808.479,828.502z"/>
	</g>
	<g>
		<path fill="#808C9A" d="M826.191,827.326c1.292,0,2.353,1.061,2.353,2.364c0,1.286-1.062,2.358-2.353,2.358
			c-1.304,0-2.364-1.073-2.364-2.358C823.828,828.385,824.889,827.326,826.191,827.326z"/>
	</g>
	<g>
		<path fill="#808C9A" d="M842.706,828.502c1.305,0,2.364,1.061,2.364,2.354c0,1.303-1.06,2.357-2.364,2.357
			c-1.291,0-2.352-1.056-2.352-2.357C840.354,829.562,841.414,828.502,842.706,828.502z"/>
	</g>
	<g>
		<path fill="#808C9A" d="M859.231,823.778c1.303,0,2.365,1.057,2.365,2.358c0,1.31-1.062,2.358-2.365,2.358
			c-1.304,0-2.352-1.049-2.352-2.358C856.879,824.835,857.928,823.778,859.231,823.778z"/>
	</g>
	<g>
		<path fill="#808C9A" d="M879.296,817.886c1.304,0,2.366,1.051,2.366,2.358c0,1.298-1.062,2.353-2.366,2.353
			s-2.364-1.055-2.364-2.353C876.933,818.937,877.993,817.886,879.296,817.886z"/>
	</g>
	<g>
		<path fill="#808C9A" d="M897.01,807.254c1.303,0,2.352,1.055,2.352,2.357c0,1.297-1.049,2.359-2.352,2.359
			c-1.304,0-2.364-1.062-2.364-2.359C894.647,808.309,895.708,807.254,897.01,807.254z"/>
	</g>
	<g>
		<path fill="#808C9A" d="M912.337,790.729c1.315,0,2.376,1.072,2.376,2.364c0,1.297-1.061,2.358-2.376,2.358
			c-1.291,0-2.353-1.062-2.353-2.358C909.984,791.801,911.045,790.729,912.337,790.729z"/>
	</g>
	<g>
		<path fill="#808C9A" d="M920.616,769.486c1.292,0,2.354,1.062,2.354,2.364c0,1.298-1.062,2.358-2.354,2.358
			c-1.314,0-2.352-1.061-2.352-2.358C918.263,770.548,919.301,769.486,920.616,769.486z"/>
	</g>
	<g>
		<path fill="#808C9A" d="M921.793,745.875c1.291,0,2.364,1.061,2.364,2.363c0,1.309-1.073,2.359-2.364,2.359
			c-1.304,0-2.354-1.049-2.354-2.359C919.439,746.936,920.49,745.875,921.793,745.875z"/>
	</g>
	<g>
		<path fill="#808C9A" d="M918.24,722.274c1.316,0,2.376,1.06,2.376,2.358c0,1.303-1.06,2.352-2.376,2.352
			c-1.29,0-2.35-1.049-2.35-2.352C915.889,723.334,916.949,722.274,918.24,722.274z"/>
	</g>
	<g>
		<path fill="#808C9A" d="M769.362,719.604c1.291,0,2.353,1.062,2.353,2.358c0,1.315-1.062,2.363-2.353,2.363
			c-1.315,0-2.365-1.048-2.365-2.363C766.997,720.666,768.047,719.604,769.362,719.604z"/>
	</g>
	<g>
		<path fill="#808C9A" d="M784.884,707.854c1.291,0,2.352,1.061,2.352,2.353c0,1.303-1.061,2.358-2.352,2.358
			c-1.303,0-2.352-1.057-2.352-2.358C782.532,708.914,783.582,707.854,784.884,707.854z"/>
	</g>
	<g>
		<path fill="#808C9A" d="M800.176,694.026c1.302,0,2.352,1.043,2.352,2.347c0,1.302-1.051,2.356-2.352,2.356
			c-1.304,0-2.353-1.055-2.353-2.356C797.823,695.069,798.872,694.026,800.176,694.026z"/>
	</g>
	<g>
		<path fill="#808C9A" d="M814.233,677.858c1.304,0,2.353,1.05,2.353,2.358c0,1.299-1.049,2.359-2.353,2.359
			c-1.303,0-2.364-1.06-2.364-2.359C811.869,678.908,812.93,677.858,814.233,677.858z"/>
	</g>
	<g>
		<path fill="#808C9A" d="M821.003,663.795c1.315,0,2.363,1.061,2.363,2.363c0,1.299-1.047,2.353-2.363,2.353
			c-1.292,0-2.354-1.054-2.354-2.353C818.649,664.855,819.71,663.795,821.003,663.795z"/>
	</g>
	<g>
		<path fill="#808C9A" d="M828.277,648.088c1.306,0,2.366,1.062,2.366,2.364c0,1.297-1.06,2.359-2.366,2.359
			c-1.302,0-2.361-1.062-2.361-2.359C825.916,649.149,826.976,648.088,828.277,648.088z"/>
	</g>
	<g>
		<path fill="#808C9A" d="M829.698,631.223c1.291,0,2.351,1.056,2.351,2.358s-1.06,2.358-2.351,2.358
			c-1.303,0-2.376-1.056-2.376-2.358S828.396,631.223,829.698,631.223z"/>
	</g>
	<g>
		<path fill="#808C9A" d="M827.576,608.735c1.314,0,2.352,1.061,2.352,2.358c0,1.302-1.038,2.347-2.352,2.347
			c-1.293,0-2.352-1.045-2.352-2.347C825.225,609.796,826.283,608.735,827.576,608.735z"/>
	</g>
	<g>
		<path fill="#808C9A" d="M816.343,587.659c1.293,0,2.354,1.057,2.354,2.359s-1.061,2.364-2.354,2.364
			c-1.314,0-2.363-1.062-2.363-2.364C813.979,588.715,815.029,587.659,816.343,587.659z"/>
	</g>
	<g>
		<path fill="#808C9A" d="M804.927,571.492c1.314,0,2.365,1.061,2.365,2.358c0,1.314-1.05,2.357-2.365,2.357
			c-1.292,0-2.354-1.043-2.354-2.357C802.573,572.553,803.635,571.492,804.927,571.492z"/>
	</g>
	<g>
		<path fill="#808C9A" d="M788.943,558.393c1.292,0,2.354,1.062,2.354,2.356c0,1.305-1.061,2.366-2.354,2.366
			c-1.315,0-2.364-1.061-2.364-2.366C786.58,559.454,787.628,558.393,788.943,558.393z"/>
	</g>
	<g>
		<path fill="#808C9A" d="M770.653,545.499c1.316,0,2.376,1.05,2.376,2.359c0,1.303-1.06,2.358-2.376,2.358
			c-1.291,0-2.353-1.056-2.353-2.358C768.301,546.548,769.362,545.499,770.653,545.499z"/>
	</g>
	<g>
		<path fill="#808C9A" d="M749.573,532.849c1.314,0,2.364,1.055,2.364,2.358c0,1.296-1.049,2.357-2.364,2.357
			c-1.292,0-2.353-1.062-2.353-2.357C747.221,533.904,748.282,532.849,749.573,532.849z"/>
	</g>
	<g>
		<path fill="#808C9A" d="M717.398,758.508c1.729,0,3.138,1.402,3.138,3.137c0,1.736-1.408,3.143-3.138,3.143
			s-3.137-1.408-3.137-3.143S715.668,758.508,717.398,758.508z"/>
	</g>
	<g>
		<path fill="#808C9A" d="M726.832,781.975c1.73,0,3.136,1.402,3.136,3.138s-1.406,3.136-3.136,3.136
			c-1.741,0-3.148-1.4-3.148-3.136S725.091,781.975,726.832,781.975z"/>
	</g>
	<g>
		<path fill="#808C9A" d="M733.52,806.262c1.73,0,3.137,1.413,3.137,3.154c0,1.736-1.408,3.144-3.137,3.144
			s-3.135-1.407-3.135-3.144C730.384,807.675,731.79,806.262,733.52,806.262z"/>
	</g>
	<g>
		<path fill="#808C9A" d="M739.182,830.779c1.742,0,3.15,1.412,3.15,3.148s-1.408,3.136-3.15,3.136c-1.729,0-3.148-1.4-3.148-3.136
			S737.453,830.779,739.182,830.779z"/>
	</g>
	<g>
		<path fill="#808C9A" d="M744.43,858.231c1.729,0,3.136,1.407,3.136,3.136c0,1.735-1.407,3.137-3.136,3.137
			c-1.743,0-3.148-1.401-3.148-3.137C741.282,859.639,742.688,858.231,744.43,858.231z"/>
	</g>
	<g>
		<path fill="#808C9A" d="M749.25,882.743c1.729,0,3.138,1.412,3.138,3.148c0,1.729-1.409,3.136-3.138,3.136
			c-1.742,0-3.149-1.406-3.149-3.136C746.102,884.155,747.507,882.743,749.25,882.743z"/>
	</g>
	<g>
		<path fill="#808C9A" d="M729.968,895.313c1.73,0,3.137,1.406,3.137,3.142s-1.407,3.147-3.137,3.147
			c-1.729,0-3.136-1.412-3.136-3.147S728.238,895.313,729.968,895.313z"/>
	</g>
	<g>
		<path fill="#808C9A" d="M707.134,895.104c1.73,0,3.137,1.402,3.137,3.137s-1.408,3.143-3.137,3.143s-3.136-1.408-3.136-3.143
			S705.404,895.104,707.134,895.104z"/>
	</g>
	<g>
		<path fill="#808C9A" d="M685.546,894.27c1.731,0,3.138,1.4,3.138,3.13c0,1.741-1.407,3.147-3.138,3.147
			c-1.729,0-3.136-1.406-3.136-3.147C682.41,895.67,683.817,894.27,685.546,894.27z"/>
	</g>
	<g>
		<path fill="#808C9A" d="M659.577,894.27c1.728,0,3.135,1.4,3.135,3.13c0,1.741-1.407,3.147-3.135,3.147
			c-1.742,0-3.148-1.406-3.148-3.147C656.429,895.67,657.835,894.27,659.577,894.27z"/>
	</g>
	<g>
		<path fill="#808C9A" d="M639.258,894.27c1.729,0,3.136,1.4,3.136,3.13c0,1.741-1.406,3.147-3.136,3.147
			c-1.742,0-3.149-1.406-3.149-3.147C636.109,895.67,637.516,894.27,639.258,894.27z"/>
	</g>
	<g>
		<path fill="#808C9A" d="M615.361,895.941c1.742,0,3.15,1.413,3.15,3.137c0,1.735-1.408,3.147-3.15,3.147
			c-1.728,0-3.135-1.412-3.135-3.147C612.227,897.354,613.633,895.941,615.361,895.941z"/>
	</g>
	<g>
		<path fill="#A8BBD5" d="M574.84,607.622c0,0,54.245,0.732,77.357,36.506C652.196,644.128,644.86,601.793,574.84,607.622z"/>
	</g>
	<g>
		<path fill="#A8BBD5" d="M507.699,689.062c0,0-74.832,69.089-81.728,213.823l92.06-10.506l-85.429,4.29
			C432.602,896.668,422.408,806.232,507.699,689.062z"/>
	</g>
	<g>
		<path fill="#808C9A" d="M442.705,931.235c-10.609-1.401-23.192-3.963-25.925-8.344c-3.32-2.576-4.542-5.241-3.597-7.923
			c1.234-3.528,6.03-7.455,32.255-9.797c14.853-1.32,35.115-1.993,60.162-1.993c0.184,0,0.368,0,0.555,0
			c43.059,0.016,85.97,2.027,86.397,2.051l-0.256,5.301c-0.425-0.02-43.22-2.03-86.141-2.041c-0.187,0-0.371,0-0.555,0
			c-24.909,0-44.987,0.654-59.69,1.981c-25.094,2.232-27.517,5.818-27.699,6.221c0.044,0.156,0.344,0.946,2.247,2.312l0.935,0.681
			l0.069,0.555c0.841,0.736,5.005,3.494,21.934,5.732L442.705,931.235z"/>
	</g>
	<g>
		<path fill="#808C9A" d="M717.801,933.04l-0.368-5.306c32.52-2.235,39.128-6.543,40.213-7.506l0.068-0.549l0.935-0.681
			c1.904-1.36,2.203-2.156,2.25-2.312c-0.185-0.404-2.607-3.983-27.724-6.227c-14.808-1.327-35.093-1.99-60.244-1.971
			c-42.923,0.011-85.707,2.016-86.121,2.041l-0.254-5.312c0.427-0.023,43.337-2.024,86.388-2.046
			c25.336-0.024,45.748,0.661,60.716,1.993c26.235,2.347,31.034,6.269,32.267,9.803c0.947,2.676-0.276,5.328-3.586,7.899
			C759.397,927.729,744.106,931.218,717.801,933.04z"/>
	</g>
	<g>
		<path fill="#808C9A" d="M417.898,916.358l-5.292-0.554c7.197-68.01,20.919-124.217,40.822-167.036
			c16.052-34.55,36.165-60.595,59.783-77.38l3.067,4.318c-22.845,16.26-42.368,41.59-58.029,75.299
			C438.598,793.301,425.026,848.936,417.898,916.358z"/>
	</g>
	<g>
		<path fill="#808C9A" d="M760.943,916.07c-6.734-63.725-18.958-116.969-36.314-158.266c-14.092-33.514-31.631-59.362-52.113-76.81
			l3.436-4.054c21.126,18.002,39.163,44.52,53.579,78.805c17.562,41.774,29.914,95.515,36.695,159.765L760.943,916.07z"/>
	</g>
	<g>
		<path fill="#808C9A" d="M513.004,675.928c0,0,77.116,71.176,159.973,28.328c0,0-71.268,54.898-163.11-24.793
			C509.867,679.461,500.618,679.461,513.004,675.928z"/>
	</g>
	<g>
		<g>
			<path fill="#808C9A" d="M617.368,722.245l-9.225-2.271c18.197-1.331,42.081-12.962,51.434-20.942
				c10.193-8.689,16.075-17.113,16.133-17.201l3.402,2.359c-0.255,0.352-6.25,8.955-16.849,17.979
				C652.438,710.557,636.673,720.838,617.368,722.245z"/>
		</g>
	</g>
	<g>
		<g>
			<path fill="#808C9A" d="M673.507,686.444c-1.466-12.259-6.32-49.686-9.087-55.665l-0.138-0.312l-0.046-0.316
				c-0.024-0.053-1.59-7.416-10.829-14.682c-15.789-12.408-41.204-15.025-59.749-15.025v-5.306c15.616,0,29.257,1.714,40.571,5.081
				c9.202,2.75,16.905,6.602,22.925,11.438c9.457,7.635,11.798,15.414,12.225,17.173c3.598,8.458,8.419,48.135,8.972,52.686
				L673.507,686.444z"/>
		</g>
	</g>
	<g>
		<g>
			<path fill="#808C9A" d="M516.049,682.148l-4.498-4.631c0.542-4.548,4.589-40.229,8.187-48.688
				c0.427-1.759,2.756-9.538,12.226-17.173c6.02-4.836,13.722-8.688,22.913-11.426c11.325-3.38,24.979-5.093,40.583-5.093v5.306
				c-64.326,0-70.531,29.406-70.576,29.707l-0.069,0.328l-0.128,0.3C521.931,636.759,517.501,669.889,516.049,682.148z"/>
		</g>
	</g>
	<g>
		<g>
			<path fill="#808C9A" d="M472.377,963.6c-0.334,0-0.679,0-1.004,0c-17.793-0.121-28.876-3.344-32.958-9.59
				c-2.098-3.206-1.799-6.492-1.224-8.204l4.914-36.234l5.257,0.704l-5.003,36.955l-0.116,0.259c-0.116,0.289-0.578,1.88,0.68,3.72
				c1.776,2.589,7.831,6.932,28.473,7.069c0.324,0.007,0.646,0.007,0.98,0.007c37.953,0,59.308-5.774,59.516-5.831l0.164-0.046
				l0.16-0.024c0.496-0.073,12.87-2.264,12.87-17.447c0-0.397,0.082-9.831,7.059-19.945l-1.292,16.331c-3.553,5.144,0.623-3.211,0,0
				c-0.438,2.216-0.462,3.598-0.462,3.615c0,10.286-4.705,15.915-8.648,18.844c-3.817,2.819-7.682,3.668-8.557,3.823
				C531.179,958.151,510.005,963.6,472.377,963.6z"/>
		</g>
	</g>
	<g>
		<g>
			<path fill="#808C9A" d="M548.66,937.434l-1.821-4.988c0.507-0.185,12.523-4.566,30.697-7.651
				c16.802-2.859,40.984,0.122,66.403,5.83l0,0c-24.54-5.513-49.104-3.379-65.387-0.611
				C560.839,933.017,548.788,937.382,548.66,937.434z"/>
		</g>
	</g>
	<g>
		<g>
			<path fill="#808C9A" d="M705.739,956.681l-63.876-0.658c-18.245,0-30.109-4.151-35.267-12.349
				c-5.626-8.955-0.875-19.006-0.69-19.438l4.798,2.312l-2.399-1.154l2.399,1.141c-0.035,0.081-3.668,7.912,0.415,14.348
				c4.06,6.429,14.703,9.824,30.769,9.824l63.818,0.663c0.241-0.011,2.353-0.196,4.245-2.329c1.854-2.117,3.897-6.636,3.009-16.163
				l-0.012-0.173l-0.647-25.347l5.305-0.14l0.658,25.26c0.831,9.256-0.681,16.071-4.498,20.251
				C710.272,956.571,706.19,956.681,705.739,956.681z"/>
		</g>
	</g>
	<g>
		<path fill="#808C9A" d="M520.846,683.297l-3.53-0.301c0.045-0.548,1.246-13.694,11.141-27.003
			c5.812-7.807,13.424-14.028,22.625-18.486c11.417-5.528,25.326-8.332,41.332-8.332v3.547c-15.407,0-28.761,2.664-39.669,7.922
			c-8.684,4.174-15.869,10.011-21.335,17.316C522.045,670.46,520.856,683.175,520.846,683.297z"/>
	</g>
	<g>
		<path fill="#808C9A" d="M670.672,688.289c-0.024-0.139-1.315-14.064-11.579-27.752c-5.998-8.009-13.862-14.393-23.365-18.965
			c-11.947-5.767-26.569-8.689-43.452-8.689v-3.875c17.528,0,32.75,3.067,45.275,9.123c10.066,4.878,18.404,11.688,24.771,20.244
			c10.839,14.576,12.156,28.985,12.201,29.586L670.672,688.289z"/>
	</g>
	<g>
		<path fill="#808C9A" d="M733.635,772.093l-0.3-3.874c3.23-0.238,11.013-1.119,13.308-4.135c0.415-0.543,0.484-1.004,0.484-1.004
			l-0.022-0.115c-3.148-22.672-12.062-37.508-19.004-45.961c-7.451-9.082-14.128-12.853-14.197-12.897l-0.241-0.122l-0.185-0.202
			c-2.354-2.358-5.155-2.808-8.534-1.372c-2.791,1.176-4.868,3.223-4.891,3.24l-2.733-2.744c0.104-0.104,2.55-2.532,5.997-4.02
			c4.751-2.047,9.261-1.36,12.708,1.967c1.348,0.79,7.876,4.912,15.073,13.688c7.242,8.84,16.559,24.315,19.835,47.859
			c0.093,0.479,0.218,2.148-1.199,4.024C747.335,769.572,741.914,771.475,733.635,772.093z"/>
	</g>
	<g>
		<path fill="#808C9A" d="M754.625,846.047v-3.874c10.874,0,12.731-5.386,12.96-6.331l-0.623-53.226
			c0-1.522-0.484-2.577-1.546-3.345c-2.616-1.862-8.521-2.035-16.629-0.49c-6.493,1.234-12.131,3.138-12.189,3.16l-1.247-3.672
			c0.242-0.088,5.952-2.014,12.71-3.305c9.42-1.793,16.016-1.407,19.604,1.17c2.086,1.488,3.183,3.72,3.183,6.453l0.623,53.59
			l-0.011,0.155C771.392,836.725,769.776,846.047,754.625,846.047z"/>
	</g>
	<g>
		<path fill="#808C9A" d="M445.126,772.715c-3.655,0-6.342-1.17-7.968-3.471c-1.36-1.902-1.87-4.461-1.545-7.586
			c0.219-1.996,0.728-3.589,0.831-3.899c7.472-25.498,25.024-49.283,25.773-50.28l0.091-0.127l0.094-0.097
			c2.95-2.96,6.077-4.342,9.271-4.141c4.786,0.312,7.795,4.162,7.923,4.331l-3.058,2.369c-0.022-0.022-2.121-2.641-5.143-2.826
			c-2.007-0.121-4.059,0.854-6.158,2.9c-1.337,1.834-18.07,25.037-25.082,48.994l-0.036,0.104c-0.495,1.449-1.43,5.709,0.208,8.01
			c0.865,1.223,2.479,1.839,4.797,1.839L445.126,772.715L445.126,772.715z"/>
	</g>
	<g>
		<path fill="#808C9A" d="M418.994,855.578c-0.703,0-1.36-0.045-2.006-0.154c-1.718-0.289-2.619-0.883-2.86-1.062l-0.577-0.432
			l-0.15-0.709c-4.256-20.008-1.28-36.055,1.994-45.99c3.298-10.039,7.449-15.967,8.187-16.98
			c3.911-7.409,16.053-3.461,16.562-3.294l-1.223,3.686l0.61-1.833l-0.61,1.833c-0.092-0.034-9.664-3.05-11.948,1.511l-0.092,0.154
			l-0.092,0.151c-0.058,0.063-4.429,5.869-7.773,16.156c-3.022,9.289-5.802,24.212-2.03,42.823c0.922,0.283,2.975,0.561,6.458-0.488
			l1.108,3.717C422.534,855.268,420.655,855.578,418.994,855.578z"/>
	</g>
	<g>
		<path fill="#808C9A" d="M697.333,970.681h-70.67c-3.85,0-6.873-3.893-6.873-8.867v-11.33h6.656v11.33
			c0,1.152,0.357,1.915,0.563,2.226h69.976c0.208-0.311,0.577-1.073,0.577-2.226v-9.268h6.642v9.268
			C704.205,966.788,701.184,970.681,697.333,970.681z"/>
	</g>
	<g>
		<path fill="#808C9A" d="M734.374,989.137H636.12c-3.782,0-6.86-3.077-6.86-6.872v-11.429c0-3.783,3.079-6.868,6.86-6.868v6.649
			c-0.117,0-0.207,0.098-0.207,0.219v11.429c0,0.128,0.092,0.22,0.207,0.22h98.254c0.116,0,0.208-0.092,0.208-0.22v-11.429
			c0-0.121-0.092-0.219-0.208-0.219h-38.84v-6.649h38.84c3.783,0,6.874,3.08,6.874,6.868v11.429
			C741.246,986.06,738.156,989.137,734.374,989.137z"/>
	</g>
	<g>
		<path fill="#808C9A" d="M483.643,970.681c-7.979,0-16.005-0.035-23.962-0.145c-2.03,0-3.761-0.743-5.028-2.175
			c-1.868-2.094-2.537-5.494-2.008-10.103l6.596,0.767c-0.369,3.121,0.094,4.528,0.335,4.869c0.034,0,0.058,0.012,0.126,0.012h0.047
			c15.89,0.189,32.082,0.121,47.742,0.057c7.381-0.033,15.003-0.057,22.522-0.057c0.841-1.246,0.772-3.201,0.565-5.998
			c-0.069-0.969-0.127-1.966-0.127-2.951l6.654,0.033c0,0.724,0.047,1.559,0.115,2.452c0.278,3.794,0.646,9.012-3.782,12.415
			l-0.897,0.691h-1.131c-7.968,0-16.052,0.034-23.893,0.062C499.661,970.646,491.669,970.681,483.643,970.681z"/>
	</g>
	<g>
		<path fill="#808C9A" d="M520.696,989.137h-98.242c-3.785,0-6.874-3.077-6.874-6.872v-11.429c0-3.783,3.089-6.868,6.874-6.868
			h38.839v6.649h-38.839c-0.117,0-0.208,0.098-0.208,0.219v11.429c0,0.128,0.091,0.22,0.208,0.22h98.242
			c0.115,0,0.218-0.092,0.218-0.22v-11.429c0-0.121-0.103-0.219-0.218-0.219v-6.649c3.782,0,6.861,3.08,6.861,6.868v11.429
			C527.558,986.06,524.49,989.137,520.696,989.137z"/>
	</g>
	<g>
		<g>
			<path fill="#808C9A" d="M836.778,624.304c-1.258-12.23-5.466-24.31-12.49-35.904c-6.03-9.941-13.918-19.294-24.113-28.572
				c-8.868-8.054-18.994-15.643-30.952-23.173c-10.518-6.638-21.888-12.91-34.758-19.184l-2.33,4.768
				c12.707,6.2,23.906,12.375,34.262,18.907c11.681,7.375,21.577,14.78,30.19,22.614c9.838,8.932,17.401,17.898,23.158,27.395
				c6.618,10.916,10.574,22.252,11.751,33.703c1.245,12.006-0.565,24.598-5.226,36.429c-4.046,10.281-10.298,20.487-18.576,30.371
				c-7.357,8.775-16.365,17.345-26.755,25.457c-9.906,7.744-20.734,14.939-32.174,21.369c-0.854,0.484-1.73,0.969-2.631,1.471
				c-1.983-5.115-3.989-10.333-5.821-15.518l-0.127-0.334l-0.196-0.295c-0.15-0.207-0.334-0.64-0.472-0.986
				c-0.117-0.264-0.231-0.547-0.37-0.812l-0.127-0.242l-0.172-0.225c-2.699-3.373-5.513-6.309-8.234-9.122
				c-1.44-1.505-2.919-3.038-4.382-4.642l0.346-0.282c14.668-7.71,26.409-15.558,36.867-24.663c0.22-0.126,0.45-0.254,0.681-0.38
				c0.611-0.323,1.291-0.692,1.926-1.315c4.625-4.341,8.684-8.653,12.972-13.23l0.393-0.411c0.496-0.536,0.714-1.112,0.854-1.482
				c6.11-6.82,10.494-14.531,12.684-22.32c2.526-8.967,2.007-17.822-1.475-25.623c-0.07-0.168-0.116-0.348-0.185-0.525
				c-0.565-1.753-1.223-3.737-2.445-5.6l-0.046-0.062c-0.714-0.98-1.338-1.953-2.007-2.992c-0.668-1.051-1.361-2.115-2.122-3.206
				l-0.069-0.087c-2.063-2.646-4.197-5.385-6.596-8.094l-0.116-0.121c-8.488-8.488-17.991-16.088-29.062-23.219
				c-9.167-5.911-19.268-11.44-31.724-17.373c-0.056-0.22-0.163-0.433-0.278-0.641l-0.333,0.195l-0.276-0.266l-1.061,1.067
				l-2.895,1.713c-0.565-0.957-0.439-2.203,0.288-2.992c-0.715,0.722-0.865,1.528-0.865,2.093v1.096l1.996,1.99l0.403,0.184
				c17.805,8.436,40.708,20.591,60.001,39.85c2.259,2.57,4.301,5.195,6.296,7.738c0.669,0.963,1.292,1.93,1.95,2.951
				c0.658,1.032,1.348,2.094,2.109,3.166c0.831,1.246,1.329,2.779,1.811,4.262c0.083,0.231,0.15,0.455,0.22,0.675l0.104,0.259
				c3.056,6.775,3.494,14.219,1.268,22.118c-1.995,7.098-6.054,14.155-11.706,20.418c-0.483,0.502-0.714,1.072-0.83,1.437
				l-0.162,0.161c-4.244,4.526-8.234,8.795-12.754,13.026l-0.058,0.057c-0.092,0.087-0.451,0.289-0.704,0.409
				c-0.379,0.207-0.806,0.434-1.245,0.74l-0.151,0.097l-0.125,0.108c-10.471,9.134-21.773,16.67-36.648,24.425
				c-0.624,0.323-1.061,0.727-1.408,1.108c-0.23,0.115-0.449,0.242-0.668,0.357l-5.801,0.415c1.232,1.516,4.001,3.159,5.224,4.658
				l0,0c1.994,2.283,4.013,4.388,5.974,6.43c2.697,2.79,5.235,5.433,7.715,8.517c0.033,0.091,0.081,0.189,0.125,0.305
				c0.208,0.461,0.439,1.021,0.773,1.568c2.121,5.963,4.438,11.948,6.7,17.73l1.223,3.178l2.628-1.349
				c1.869-0.957,3.714-1.978,5.422-2.94c11.669-6.562,22.717-13.896,32.842-21.808c10.678-8.342,19.952-17.165,27.551-26.234
				c8.648-10.315,15.188-21.017,19.454-31.829C836.189,650.614,838.104,637.151,836.778,624.304z"/>
		</g>
	</g>
	<g>
		<g>
			<path fill="#808C9A" d="M921.215,710.822l-5.016,1.742c5.662,16.312,8.362,30.797,8.2,44.319
				c-0.186,17.418-5.258,32.404-15.107,44.53c-9.756,12.062-23.964,20.872-42.207,26.211c-13.251,3.877-28.761,5.934-46.129,6.137
				c-22.96,0.264-41.447-2.896-48.781-4.383l1.499-37.596c0.23,0.041,0.461,0.07,0.693,0.11c8.141,1.401,27.236,4.688,46.864,4.382
				c28.749-0.438,49.705-6.999,58.976-18.475c4.901-6.06,7.138-14.397,6.643-24.811c-0.369-8.188-2.446-17.743-6.159-28.364
				l-5.016,1.741c5.396,15.493,9.848,36.426,0.403,48.096c-8.269,10.234-27.769,16.092-54.938,16.514
				c-19.12,0.299-37.872-2.935-45.875-4.318c-2.94-0.5-3.667-0.61-4.233-0.588l-2.445,0.098l-1.903,47.513l2.215,0.45
				c0.045,0,0.116,0.018,0.229,0.041c5.64,1.227,26.04,5.199,51.872,4.9c17.852-0.203,33.858-2.342,47.558-6.35
				c19.305-5.639,34.402-15.044,44.86-27.947c10.61-13.095,16.099-29.176,16.295-47.834
				C929.865,742.795,927.096,727.717,921.215,710.822z"/>
		</g>
	</g>
	<g>
		<g>
			<path fill="#808C9A" d="M257.108,898.058c-4.786-16.52-8.234-32.25-10.195-46.751c-2.283-16.803-2.699-32.566-1.245-46.874
				c2.837-27.723,12.697-50.854,29.303-68.747c10.944-11.797,24.749-21.186,41.066-27.907l2.03,4.907
				c-15.604,6.43-28.796,15.389-39.209,26.604c-15.799,17.033-25.186,39.123-27.908,65.688c-1.407,13.879-0.993,29.229,1.223,45.608
				c1.937,14.256,5.316,29.719,10.044,45.989L257.108,898.058z"/>
		</g>
	</g>
	<g>
		<g>
			<path fill="#808C9A" d="M296.915,881.584c-7.806-28.201-10.724-52.673-8.694-72.732c1.891-18.52,7.796-32.912,18.047-44
				c5.79-6.264,13.147-11.533,21.877-15.662l2.283,4.803c-8.118,3.848-14.934,8.695-20.25,14.461
				c-9.456,10.212-14.899,23.602-16.664,40.94c-1.971,19.391,0.889,43.204,8.523,70.777L296.915,881.584z"/>
		</g>
	</g>
	<g>
		<g>
			<path fill="#808C9A" d="M441.622,751.007l-2.03-0.479c-0.024,0-0.126-0.027-0.3-0.074c-4.382-1.303-27.562-7.732-53.715-7.323
				c-1.051,0.023-2.33,0.023-3.691,0.04c-3.079,0.012-6.561,0.023-8.741,0.162l-0.346-5.301c2.341-0.144,5.905-0.166,9.064-0.178
				c1.337-0.012,2.607-0.012,3.632-0.029c24.136-0.38,45.84,4.902,53.313,6.961l0.394-0.773l21.542-34.941
				c-11.244-2.475-44.353-9.082-74.763-8.726c-9.33,0.11-18.394,0.722-26.95,1.841l-0.692-5.271
				c8.763-1.136,18.035-1.775,27.584-1.887c35.83-0.404,75.269,8.656,79.641,9.688l3.584,0.849l-25.357,41.14L441.622,751.007z"/>
		</g>
	</g>
	<g>
		<g>
			<path fill="#808C9A" d="M415.212,851.658c-0.992,0-2.952-0.641-11.348-7.276c-6.504-5.139-13.977-11.699-21.058-18.487
				c-14.438-13.844-34.434-35.403-47.604-59.476c-15.141-27.665-23.491-56.881-24.84-86.866
				c-1.615-36.204,7.069-73.222,25.809-110.01l4.752,2.417c-18.337,35.956-26.824,72.086-25.256,107.357
				c1.315,29.164,9.445,57.614,24.195,84.548c12.524,22.873,31.482,43.51,45.182,56.807c12.282,11.918,22.384,19.967,27.492,23.594
				l-1.014-20.272l5.961-22.354c-17.331-14.191-33.039-33.916-45.494-57.118c-11.67-21.768-18.035-44.572-18.923-67.81
				c-1.05-27.435,5.569-55.913,19.686-84.651l4.774,2.343c-13.722,27.941-20.157,55.562-19.144,82.107
				c0.854,22.419,7.012,44.468,18.291,65.508c12.247,22.84,27.723,42.201,44.768,55.982c0.322,0.267,0.587,0.478,0.76,0.635
				l1.293,1.078l-6.643,24.845l1.246,24.736l-0.163,0.478c-0.346,1.033-1.281,1.771-2.376,1.857
				C415.442,851.652,415.339,851.658,415.212,851.658z"/>
		</g>
	</g>
	<g>
		<path fill="#808C9A" d="M688.223,572.19c-10.103,0-20.308-5.084-29.534-14.722c-6.815-7.131-10.702-14.177-10.864-14.472
			l-0.772-1.418l17.265-25.741l1.21,6.326c1.256,6.474,4.891,11.123,10.748,13.786c4.833,2.187,9.734,2.428,11.614,2.428
			c0.022,0,0.058,0,0.081,0c6.123-3.477,9.296-7.601,9.41-12.242c0.312-11.912-18.612-26.23-25.947-30.733l-1.938-1.205
			l13.677-32.029l2.398,0.917c27.584,10.54,44.008,24.972,48.826,42.876c2.631,9.848,1.593,20.797-2.999,31.655
			c-3.447,8.136-7.634,13.355-7.818,13.579C712.185,565.126,700.284,572.19,688.223,572.19z M653.292,541.802
			c3.333,5.415,16.722,25.071,34.932,25.071c10.402,0,20.908-6.399,31.228-19.04c0.163-0.189,15.477-19.472,9.804-40.541
			c-4.222-15.648-18.751-28.534-43.211-38.314l-9.883,23.149c2.583,1.73,7.394,5.145,12.225,9.56
			c9.687,8.858,14.507,17.125,14.299,24.587c-0.171,6.809-4.45,12.546-12.73,17.067l-0.518,0.289l-0.589,0.029
			c-0.046,0.011-0.379,0.034-0.946,0.034c-3.528,0-19.766-0.802-25.866-14.917L653.292,541.802z"/>
	</g>
	<g>
		<path fill="#808C9A" d="M383.844,597.561L383.844,597.561c-17.321-0.012-31.103-9.525-31.667-9.923
			c-15.914-11.203-23.825-23.537-23.548-36.648c0.219-9.451,4.867-19.289,13.446-28.473c6.39-6.804,12.639-10.852,12.894-11.013
			l1.35-0.871l26.904,15.395l-6.215,1.666c-7.035,1.886-11.614,6.446-13.598,13.579c-1.245,4.422-1.106,8.487-0.991,9.935
			c3.771,5.663,7.934,8.546,12.386,8.546l0,0c12.015-0.012,25.232-20.262,29.313-28.07l1.051-2.029l32.925,11.376l-0.739,2.445
			c-5.927,19.581-14.185,34.071-24.517,43.061C404.431,593.853,394.663,597.561,383.844,597.561z M356.537,516.864
			c-4.936,3.552-22.234,17.195-22.591,34.257c-0.23,11.232,6.93,22.06,21.277,32.175c0.115,0.081,13.031,8.955,28.623,8.955l0,0
			c9.514,0,18.082-3.275,25.509-9.723c9.158-7.956,16.605-20.785,22.164-38.153l-23.802-8.222
			c-1.569,2.745-4.728,7.923-8.903,13.164c-8.324,10.438-16.41,15.729-24.008,15.741l0,0c-6.504,0-12.294-3.875-17.194-11.515
			l-0.335-0.501l-0.069-0.594c-0.023-0.242-0.749-6.071,1.084-12.617c1.949-6.942,6.019-12.102,11.878-15.165L356.537,516.864z"/>
	</g>
	<g>
		<path fill="#808C9A" d="M264.166,978.401l-1.442-2.122c-16.583-24.447-21.806-45.678-15.487-63.115
			c3.483-9.594,10.598-17.973,20.585-24.246c7.484-4.694,13.907-6.568,14.172-6.647c7.172-2.024,13.781-3.057,19.695-3.057
			c11.28,0,20.273,3.662,26.755,10.904c13.746,15.342,11.095,41.156,10.968,42.241l-0.174,1.602l-28.887,11.227l2.618-5.888
			c2.929-6.595,2.293-12.995-1.915-18.985c-2.652-3.801-5.974-6.298-7.196-7.152c-1.038-0.099-2.053-0.145-3.021-0.145
			c-5.765,0-9.709,1.734-12.062,5.293c-6.458,9.86,0.715,31.893,4.036,39.549l0.9,2.104L264.166,978.401z M301.69,884.524
			c-5.419,0-11.554,0.964-18.232,2.86c-0.218,0.059-23.836,7.109-31.24,27.631c-5.501,15.251-0.969,34.135,13.491,56.154
			l21.358-13.324c-1.096-2.832-3.021-8.193-4.452-14.398c-2.872-12.495-2.283-21.928,1.73-28.033
			c3.344-5.115,8.903-7.704,16.49-7.704c1.349,0,2.767,0.082,4.245,0.242l0.587,0.062l0.519,0.312
			c0.196,0.144,5.177,3.233,9.109,8.775c4.175,5.888,5.629,12.294,4.313,18.785l14.647-5.691c0.321-5.627,0.599-24.989-9.778-36.556
			C319.047,887.592,311.377,884.524,301.69,884.524z"/>
	</g>
	<g>
		<path fill="#808C9A" d="M910.838,642.449c0.277,0.179,6.435,4.358,12.638,11.313c8.384,9.364,12.812,19.321,12.801,28.772
			c-0.01,13.107-8.211,25.255-24.356,36.102c-0.553,0.38-13.999,9.202-30.826,9.202c-11.013,0-20.85-3.759-29.257-11.197
			c-10.4-9.196-18.498-24.033-24.09-44.093l-0.68-2.461l33.167-10.622l1.014,2.048c3.943,7.985,16.837,28.721,28.923,28.721
			c4.348,0,8.487-2.774,12.328-8.246c0.126-1.482,0.38-5.634-0.795-10.119c-1.868-7.082-6.321-11.7-13.264-13.73l-6.18-1.815
			l27.262-14.767L910.838,642.449z M906.882,670.714c1.694,6.574,0.842,12.386,0.796,12.628l-0.092,0.588l-0.324,0.502
			c-4.982,7.381-10.725,11.117-17.091,11.117c-7.668,0-15.707-5.432-23.895-16.145c-4.117-5.375-7.196-10.696-8.717-13.504
			l-23.987,7.686c5.259,17.8,12.593,30.94,21.796,39.076c7.404,6.557,16.052,9.872,25.728,9.872c15.166,0,27.759-8.222,27.873-8.304
			c14.577-9.797,21.98-20.452,22.004-31.677c0.023-17.069-16.965-31.104-21.819-34.775l-13.805,7.495
			C901.151,658.461,905.094,663.721,906.882,670.714z"/>
	</g>
	<g>
		<polygon fill="#75C7D2" points="-4.368,891.238 -3.399,1047.89 1918.312,1047.89 1918.928,891.238 		"/>
	</g>
	<g>
		<path fill="#030202" d="M797.338,957.038l-65.413-0.675c-18.675,0.002-30.832-4.255-36.104-12.653
			c-5.753-9.161-0.904-19.46-0.695-19.895l4.898,2.364l-2.449-1.183l2.453,1.173c-0.039,0.082-3.75,8.096,0.42,14.686
			c4.168,6.588,15.063,10.07,31.504,10.07l65.358,0.674c0.247-0.016,2.411-0.195,4.337-2.387c1.906-2.169,3.989-6.8,3.09-16.552
			l-0.01-0.178l-0.675-25.954l5.437-0.14l0.671,25.861c0.862,9.473-0.686,16.45-4.598,20.739
			C801.98,956.924,797.802,957.038,797.338,957.038"/>
	</g>
	<g>
		<path fill="#030202" d="M788.742,972.842H716.37c-4.764,0-8.497-4.637-8.497-10.556v-11.585h9.743v11.585
			c0,0.322,0.036,0.595,0.084,0.812h69.712c0.048-0.218,0.084-0.49,0.084-0.812v-9.484h9.743v9.484
			C797.238,968.205,793.506,972.842,788.742,972.842z"/>
	</g>
	<g>
		<defs>
			<rect id="SVGID_1_" x="818.93" y="894.195" width="6.437" height="6.434"/>
		</defs>
		<clipPath id="SVGID_2_">
			<use xlink:href="#SVGID_1_"  overflow="visible"/>
		</clipPath>
		<g clip-path="url(#SVGID_2_)">
			<path fill="#808C9A" d="M825.367,897.413c0,1.778-1.439,3.219-3.218,3.219c-1.777,0-3.219-1.44-3.219-3.219
				c0-1.777,1.441-3.218,3.219-3.218C823.928,894.195,825.367,895.636,825.367,897.413"/>
		</g>
	</g>
	<g>
		<defs>
			<rect id="SVGID_3_" x="795.548" y="893.979" width="6.435" height="6.439"/>
		</defs>
		<clipPath id="SVGID_4_">
			<use xlink:href="#SVGID_3_"  overflow="visible"/>
		</clipPath>
		<g clip-path="url(#SVGID_4_)">
			<path fill="#808C9A" d="M801.984,897.199c0,1.776-1.441,3.217-3.218,3.217c-1.777,0-3.218-1.44-3.218-3.217
				s1.439-3.219,3.218-3.219C800.542,893.98,801.984,895.423,801.984,897.199"/>
		</g>
	</g>
	<g opacity="0.6">
		<g>
			<defs>
				<rect id="SVGID_5_" x="773.45" y="893.123" width="6.437" height="6.432"/>
			</defs>
			<clipPath id="SVGID_6_">
				<use xlink:href="#SVGID_5_"  overflow="visible"/>
			</clipPath>
			<g clip-path="url(#SVGID_6_)">
				<path fill="#808C9A" d="M779.885,896.341c0,1.777-1.439,3.218-3.217,3.218c-1.776,0-3.218-1.44-3.218-3.218
					c0-1.776,1.441-3.218,3.218-3.218C778.446,893.123,779.885,894.564,779.885,896.341"/>
			</g>
		</g>
	</g>
	<g>
		<g opacity="0.6">
			<g>
				<defs>
					<rect id="SVGID_7_" x="746.847" y="893.123" width="6.437" height="6.432"/>
				</defs>
				<clipPath id="SVGID_8_">
					<use xlink:href="#SVGID_7_"  overflow="visible"/>
				</clipPath>
				<g clip-path="url(#SVGID_8_)">
					<path fill="#808C9A" d="M753.284,896.341c0,1.777-1.44,3.218-3.219,3.218c-1.777,0-3.218-1.44-3.218-3.218
						c0-1.776,1.441-3.218,3.218-3.218C751.844,893.123,753.284,894.564,753.284,896.341"/>
				</g>
			</g>
		</g>
		<g>
			<g opacity="0.6">
				<g>
					<defs>
						<rect id="SVGID_9_" x="726.038" y="893.123" width="6.437" height="6.432"/>
					</defs>
					<clipPath id="SVGID_10_">
						<use xlink:href="#SVGID_9_"  overflow="visible"/>
					</clipPath>
					<g clip-path="url(#SVGID_10_)">
						<path fill="#808C9A" d="M732.476,896.341c0,1.777-1.441,3.218-3.219,3.218c-1.776,0-3.218-1.44-3.218-3.218
							c0-1.776,1.442-3.218,3.218-3.218C731.034,893.123,732.476,894.564,732.476,896.341"/>
					</g>
				</g>
			</g>
			<g>
				<g opacity="0.6">
					<g>
						<defs>
							<rect id="SVGID_11_" x="701.583" y="894.837" width="6.435" height="6.438"/>
						</defs>
						<clipPath id="SVGID_12_">
							<use xlink:href="#SVGID_11_"  overflow="visible"/>
						</clipPath>
						<g clip-path="url(#SVGID_12_)">
							<path fill="#808C9A" d="M708.018,898.058c0,1.777-1.439,3.218-3.216,3.218c-1.778,0-3.218-1.44-3.218-3.218
								c0-1.776,1.439-3.218,3.218-3.218C706.578,894.839,708.018,896.28,708.018,898.058"/>
						</g>
					</g>
				</g>
				<g>
					<path fill="#808C9A" d="M797.338,957.038l-65.413-0.675c-18.675,0.002-30.832-4.255-36.104-12.653
						c-5.753-9.161-0.904-19.46-0.695-19.895l4.898,2.364l-2.449-1.183l2.453,1.173c-0.039,0.082-3.75,8.096,0.42,14.686
						c4.168,6.588,15.063,10.07,31.504,10.07l65.358,0.674c0.247-0.016,2.411-0.195,4.337-2.387c1.906-2.169,3.989-6.8,3.09-16.552
						l-0.01-0.178l-0.675-25.954l5.437-0.14l0.671,25.861c0.862,9.473-0.686,16.45-4.598,20.739
						C801.98,956.924,797.802,957.038,797.338,957.038"/>
				</g>
				<g>
					<path fill="#808C9A" d="M788.742,971.375H716.37c-3.942,0-7.031-3.992-7.031-9.089v-11.585h6.81v11.585
						c0,1.182,0.358,1.966,0.586,2.279h71.638c0.228-0.313,0.587-1.099,0.587-2.279v-9.484h6.809v9.484
						C795.771,967.383,792.684,971.375,788.742,971.375"/>
				</g>
				<g>
					<polygon fill="#75C7D2" points="483.497,891.238 376.288,1047.89 570.95,1047.89 678.159,891.238 					"/>
				</g>
				<g>
					<polygon fill="#75C7D2" points="678.158,891.238 570.949,1047.89 765.613,1047.89 872.82,891.238 					"/>
				</g>
				<g>
					<polygon fill="#75C7D2" points="230.791,891.238 230.791,1047.89 376.288,1047.89 483.497,891.238 					"/>
				</g>
				<g>
					<polygon fill="#75C7D2" points="1262.145,891.238 1154.936,1047.89 1349.598,1047.89 1456.807,891.238 					"/>
				</g>
				<g>
					<polygon fill="#75C7D2" points="1456.807,891.238 1349.598,1047.89 1609.188,1047.89 1609.188,891.238 					"/>
				</g>
				<g>
					<rect x="-6.382" y="1047.89" fill="#4E9EB5" width="1924.696" height="55.619"/>
				</g>
				<g>
					<rect x="-3.399" y="1103.509" fill="#75C7D2" width="1922.327" height="16.609"/>
				</g>
				<g>
					<path fill="#B6DDE8" d="M289.965,1076.581c-0.016-0.208,0.839-0.66,1.898-1.004l1.071-0.35
						c1.059-0.343,1.644-1.492,1.299-2.551l-2.266-6.982c-0.345-1.06-1.494-1.644-2.553-1.303l-1.056,0.344
						c-1.059,0.346-2.562-0.026-3.338-0.827l-7.767-5.623c-0.996-0.498-1.812-1.815-1.812-2.93v-1.112
						c0-1.114-0.911-2.025-2.024-2.025h-7.343c-1.114,0-2.026,0.911-2.026,2.025v1.112c0,1.114-0.815,2.432-1.812,2.93l-7.766,5.623
						c-0.776,0.8-2.279,1.173-3.337,0.827l-1.055-0.344c-1.06-0.344-2.208,0.241-2.552,1.302l-2.269,6.982
						c-0.344,1.058,0.241,2.209,1.301,2.551l1.072,0.351c1.06,0.344,1.914,0.796,1.898,1.004v0.193
						c0,4.647,3.245,10.556,3.245,10.556c0.537,0.975,0.438,2.511-0.215,3.413l-0.663,0.911c-0.655,0.902-0.453,2.174,0.449,2.831
						l5.937,4.312c0.903,0.654,2.175,0.453,2.83-0.448l0.661-0.909c0.654-0.9,2.071-1.398,3.146-1.108c0,0,2.445,0.664,4.829,0.664
						c2.384,0,4.83-0.664,4.83-0.664c1.076-0.29,2.491,0.208,3.146,1.11l0.66,0.907c0.655,0.901,1.929,1.103,2.83,0.448l5.939-4.312
						c0.902-0.657,1.104-1.929,0.449-2.831l-0.662-0.911c-0.654-0.901-0.752-2.438-0.215-3.413c0,0,3.245-5.908,3.245-10.556
						L289.965,1076.581L289.965,1076.581z"/>
				</g>
				<g>
					<path fill="#B6DDE8" d="M940.208,1076.581c-0.014-0.208,0.84-0.66,1.898-1.004l1.07-0.35c1.061-0.343,1.646-1.492,1.3-2.551
						l-2.267-6.982c-0.343-1.06-1.492-1.644-2.553-1.303l-1.053,0.344c-1.061,0.346-2.562-0.026-3.339-0.827l-7.766-5.623
						c-0.998-0.498-1.812-1.815-1.812-2.93v-1.112c0-1.114-0.913-2.025-2.025-2.025h-7.343c-1.115,0-2.026,0.911-2.026,2.025v1.112
						c0,1.114-0.816,2.432-1.812,2.93l-7.766,5.623c-0.776,0.8-2.279,1.173-3.337,0.827l-1.055-0.344
						c-1.061-0.344-2.21,0.241-2.553,1.302l-2.269,6.982c-0.343,1.058,0.241,2.209,1.301,2.551l1.073,0.351
						c1.058,0.344,1.913,0.796,1.896,1.004v0.193c0,4.647,3.245,10.556,3.245,10.556c0.538,0.975,0.44,2.511-0.215,3.413
						l-0.663,0.911c-0.655,0.902-0.454,2.174,0.448,2.831l5.938,4.312c0.902,0.654,2.174,0.453,2.83-0.448l0.661-0.909
						c0.654-0.9,2.07-1.398,3.145-1.108c0,0,2.445,0.664,4.829,0.664c2.386,0,4.83-0.664,4.83-0.664
						c1.076-0.29,2.491,0.208,3.145,1.11l0.662,0.907c0.656,0.901,1.928,1.103,2.83,0.448l5.938-4.312
						c0.901-0.657,1.103-1.929,0.448-2.831l-0.661-0.911c-0.657-0.901-0.752-2.438-0.215-3.413c0,0,3.245-5.908,3.245-10.556
						V1076.581L940.208,1076.581z"/>
				</g>
				<g>
					<path fill="#B6DDE8" d="M1584.599,1076.581c-0.016-0.208,0.839-0.66,1.897-1.004l1.07-0.35
						c1.059-0.343,1.645-1.492,1.303-2.551l-2.269-6.982c-0.345-1.06-1.493-1.644-2.553-1.303l-1.054,0.344
						c-1.061,0.346-2.562-0.026-3.341-0.827l-7.765-5.623c-0.998-0.498-1.812-1.815-1.812-2.93v-1.112
						c0-1.114-0.912-2.025-2.026-2.025h-7.341c-1.115,0-2.025,0.911-2.025,2.025v1.112c0,1.114-0.814,2.432-1.812,2.93l-7.768,5.623
						c-0.774,0.8-2.278,1.173-3.337,0.827l-1.056-0.344c-1.06-0.344-2.209,0.241-2.553,1.302l-2.269,6.982
						c-0.345,1.058,0.24,2.209,1.302,2.551l1.072,0.351c1.057,0.344,1.912,0.796,1.896,1.004v0.193
						c0,4.647,3.244,10.556,3.244,10.556c0.536,0.975,0.439,2.511-0.216,3.413l-0.662,0.911c-0.654,0.902-0.452,2.174,0.449,2.831
						l5.938,4.312c0.901,0.654,2.174,0.453,2.829-0.448l0.662-0.909c0.653-0.9,2.069-1.398,3.145-1.108c0,0,2.445,0.664,4.829,0.664
						c2.386,0,4.831-0.664,4.831-0.664c1.077-0.29,2.49,0.208,3.146,1.11l0.658,0.907c0.656,0.901,1.928,1.103,2.83,0.448
						l5.938-4.312c0.903-0.657,1.104-1.929,0.447-2.831l-0.659-0.911c-0.655-0.901-0.753-2.438-0.216-3.413
						c0,0,3.245-5.908,3.245-10.556V1076.581L1584.599,1076.581z"/>
				</g>
				<g>
					<path fill="#4E9EB5" d="M277.499,1075.699c0,4.284-3.471,7.754-7.755,7.754c-4.282,0-7.754-3.47-7.754-7.754
						c0-4.283,3.471-7.754,7.754-7.754C274.027,1067.945,277.499,1071.418,277.499,1075.699"/>
				</g>
				<g>
					<path fill="#4E9EB5" d="M927.743,1075.699c0,4.284-3.472,7.754-7.753,7.754c-4.285,0-7.754-3.47-7.754-7.754
						c0-4.283,3.47-7.754,7.754-7.754C924.271,1067.945,927.743,1071.418,927.743,1075.699"/>
				</g>
				<g>
					<path fill="#4E9EB5" d="M1572.133,1075.699c0,4.284-3.471,7.754-7.753,7.754s-7.754-3.47-7.754-7.754
						c0-4.283,3.472-7.754,7.754-7.754S1572.133,1071.418,1572.133,1075.699"/>
				</g>
				<g>
					<rect x="261.99" y="1120.118" fill="#75C7D2" width="53.871" height="95.771"/>
				</g>
				<g>
					<polygon fill="#B6DDE8" points="315.86,1215.889 405.783,1120.118 315.86,1120.118 					"/>
				</g>
				<g>
					<rect x="1413.438" y="1120.118" fill="#75C7D2" width="53.871" height="95.771"/>
				</g>
				<g>
					<polygon fill="#B6DDE8" points="1467.309,1215.889 1557.23,1120.118 1467.309,1120.118 					"/>
				</g>
				<g>
					<polygon fill="#4E9EB5" points="315.86,1120.118 315.86,1131.163 405.783,1120.118 					"/>
				</g>
				<g>
					<polygon fill="#4E9EB5" points="1464.011,1120.118 1464.011,1131.163 1553.934,1120.118 					"/>
				</g>
				<g>
					<g>
						<polygon fill="#D8E4E6" points="1169.857,1041.623 1268.49,897.504 1447.968,897.504 1349.336,1041.623 						"/>
					</g>
					<g>
						<path fill="#ECF3F7" d="M1274.863,902.417l-5.364,8.479l-5.412,8.444l-10.899,16.839l-10.996,16.772
							c-3.657,5.596-7.383,11.143-11.072,16.719l-5.545,8.353l-5.582,8.328l-11.184,16.644c-3.714,5.558-7.508,11.06-11.258,16.595
							l-11.276,16.58l-2.007-3.804l40.894,0.112l20.444,0.176l10.225,0.086l10.223,0.145l20.446,0.303l20.444,0.404l20.445,0.523
							l10.225,0.311l10.225,0.37l-10.225,0.372l-10.225,0.31l-20.445,0.526l-20.444,0.401l-20.446,0.303l-10.223,0.146
							l-10.225,0.086l-20.444,0.175l-40.894,0.112l-4.631,0.014l2.626-3.816l11.371-16.516c3.8-5.499,7.558-11.026,11.393-16.5
							l11.465-16.451l5.744-8.217l5.776-8.195c3.861-5.458,7.684-10.939,11.577-16.375l11.653-16.321l11.748-16.258l5.912-8.102
							L1274.863,902.417z"/>
					</g>
				</g>
				<g>
					<g>
						<polygon fill="#D8E4E6" points="1364.185,1041.623 1462.816,897.504 1642.295,897.504 1543.663,1041.623 						"/>
					</g>
					<g>
						<path fill="#ECF3F7" d="M1469.19,902.417l-5.365,8.479l-5.412,8.444l-10.899,16.839l-10.996,16.772
							c-3.657,5.596-7.383,11.143-11.07,16.719l-5.547,8.353l-5.581,8.328l-11.185,16.644c-3.713,5.558-7.507,11.06-11.256,16.595
							l-11.277,16.58l-2.006-3.804l40.893,0.112l20.445,0.176l10.224,0.086l10.222,0.145l20.447,0.303l20.443,0.404l20.446,0.523
							l10.226,0.311l10.223,0.37l-10.223,0.372l-10.226,0.31l-20.446,0.526l-20.443,0.401l-20.447,0.303l-10.222,0.146
							l-10.224,0.086l-20.445,0.175l-40.893,0.112l-4.633,0.014l2.627-3.816l11.371-16.516c3.8-5.499,7.557-11.026,11.394-16.5
							l11.464-16.451l5.745-8.217l5.777-8.195c3.86-5.458,7.684-10.939,11.577-16.375l11.65-16.321l11.75-16.258l5.912-8.102
							L1469.19,902.417z"/>
					</g>
				</g>
				<g>
					<g>
						<polygon fill="#D8E4E6" points="1559.222,1041.623 1657.854,897.504 1837.332,897.504 1738.7,1041.623 						"/>
					</g>
					<g>
						<path fill="#ECF3F7" d="M1664.228,902.417l-5.364,8.479l-5.412,8.444l-10.898,16.839l-10.996,16.772
							c-3.658,5.596-7.385,11.143-11.072,16.719l-5.546,8.353l-5.582,8.328l-11.185,16.644c-3.713,5.558-7.507,11.06-11.256,16.595
							l-11.278,16.58l-2.007-3.804l40.894,0.112l20.446,0.176l10.223,0.086l10.224,0.145l20.445,0.303l20.446,0.404l20.444,0.523
							l10.226,0.311l10.224,0.37l-10.224,0.372l-10.226,0.31l-20.444,0.526l-20.446,0.401l-20.445,0.303l-10.224,0.146
							l-10.223,0.086l-20.446,0.175l-40.894,0.112l-4.631,0.014l2.627-3.816l11.371-16.516c3.801-5.499,7.557-11.026,11.394-16.5
							l11.464-16.451l5.744-8.217l5.776-8.195c3.862-5.458,7.685-10.939,11.577-16.375l11.652-16.321l11.749-16.258l5.911-8.102
							L1664.228,902.417z"/>
					</g>
				</g>
				<g>
					<g>
						<polygon fill="#D8E4E6" points="1752.581,1041.623 1851.213,897.504 2030.692,897.504 1932.06,1041.623 						"/>
					</g>
					<g>
						<path fill="#ECF3F7" d="M1857.587,902.417l-5.364,8.479l-5.412,8.444l-10.898,16.839l-10.997,16.772
							c-3.657,5.596-7.384,11.143-11.071,16.719l-5.546,8.353l-5.582,8.328l-11.185,16.644c-3.713,5.558-7.506,11.06-11.255,16.595
							l-11.277,16.58l-2.007-3.804l40.894,0.112l20.444,0.176l10.225,0.086l10.222,0.145l20.447,0.303l20.444,0.404l20.445,0.523
							l10.225,0.311l10.224,0.37l-10.224,0.372l-10.225,0.31l-20.445,0.526l-20.444,0.401l-20.447,0.303l-10.222,0.146
							l-10.225,0.086l-20.444,0.175l-40.894,0.112l-4.633,0.014l2.628-3.816l11.371-16.516c3.8-5.499,7.558-11.026,11.393-16.5
							l11.464-16.451l5.746-8.217l5.776-8.195c3.86-5.458,7.685-10.939,11.577-16.375l11.652-16.321l11.748-16.258l5.912-8.102
							L1857.587,902.417z"/>
					</g>
				</g>
				<g>
					<g>
						<polygon fill="#D8E4E6" points="-3.399,1041.623 95.233,897.504 274.71,897.504 176.078,1041.623 						"/>
					</g>
					<g>
						<path fill="#ECF3F7" d="M101.605,902.417l-5.363,8.479l-5.413,8.444L79.931,936.18l-10.996,16.772
							c-3.657,5.596-7.384,11.143-11.072,16.719l-5.546,8.353l-5.582,8.328l-11.185,16.644c-3.713,5.558-7.507,11.06-11.255,16.595
							l-11.277,16.58l-2.007-3.804l40.894,0.112l20.445,0.176l10.224,0.086l10.222,0.145l20.447,0.303l20.445,0.404l20.445,0.523
							l10.225,0.311l10.224,0.37l-10.224,0.372l-10.225,0.31l-20.445,0.526l-20.445,0.401l-20.447,0.303l-10.222,0.146
							l-10.224,0.086l-20.445,0.175l-40.894,0.112l-4.632,0.014l2.626-3.816l11.371-16.519c3.8-5.5,7.557-11.026,11.392-16.501
							l11.464-16.45l5.744-8.217l5.777-8.195c3.861-5.458,7.684-10.939,11.577-16.375l11.652-16.321l11.748-16.258l5.913-8.102
							L101.605,902.417z"/>
					</g>
				</g>
				<g>
					<g>
						<polygon fill="#D8E4E6" points="190.927,1041.623 289.56,897.504 469.037,897.504 370.405,1041.623 						"/>
					</g>
					<g>
						<path fill="#ECF3F7" d="M295.933,902.417l-5.364,8.479l-5.412,8.444l-10.899,16.839l-10.997,16.772
							c-3.657,5.596-7.384,11.143-11.072,16.719l-5.546,8.353l-5.582,8.328l-11.184,16.644c-3.713,5.558-7.507,11.06-11.255,16.595
							l-11.277,16.58l-2.007-3.804l40.894,0.112l20.445,0.176l10.224,0.086l10.222,0.145l20.447,0.303l20.445,0.404l20.445,0.523
							l10.225,0.311l10.224,0.37l-10.224,0.372l-10.225,0.31l-20.445,0.526l-20.445,0.401l-20.447,0.303l-10.222,0.146
							l-10.224,0.086l-20.445,0.175l-40.894,0.112l-4.632,0.014l2.626-3.816l11.372-16.516c3.799-5.499,7.557-11.026,11.393-16.5
							l11.464-16.451l5.744-8.217l5.777-8.195c3.862-5.458,7.684-10.939,11.577-16.375l11.652-16.321l11.749-16.258l5.913-8.102
							L295.933,902.417z"/>
					</g>
				</g>
				<g>
					<g>
						<polygon fill="#D8E4E6" points="385.965,1041.623 484.597,897.504 664.075,897.504 565.442,1041.623 						"/>
					</g>
					<g>
						<path fill="#ECF3F7" d="M490.971,902.417l-5.363,8.479l-5.413,8.444l-10.898,16.839L458.3,952.952
							c-3.656,5.596-7.384,11.143-11.072,16.719l-5.546,8.353l-5.581,8.328l-11.185,16.644c-3.713,5.558-7.507,11.06-11.255,16.595
							l-11.277,16.58l-2.007-3.804l40.893,0.112l20.446,0.176l10.223,0.086l10.223,0.145l20.446,0.303l20.446,0.404l20.446,0.523
							l10.224,0.311l10.223,0.37l-10.223,0.372l-10.224,0.31l-20.446,0.526l-20.446,0.401l-20.446,0.303l-10.223,0.146
							l-10.223,0.086l-20.446,0.175l-40.893,0.112l-4.633,0.014l2.627-3.816l11.372-16.516c3.799-5.499,7.557-11.026,11.392-16.5
							l11.464-16.451l5.745-8.217l5.776-8.195c3.861-5.458,7.684-10.939,11.577-16.375l11.653-16.321l11.748-16.258l5.912-8.102
							L490.971,902.417z"/>
					</g>
				</g>
				<g>
					<g>
						<polygon fill="#D8E4E6" points="579.324,1041.623 677.955,897.504 857.433,897.504 758.801,1041.623 						"/>
					</g>
					<g>
						<path fill="#ECF3F7" d="M684.329,902.417l-5.363,8.479l-5.413,8.444l-10.898,16.839l-10.997,16.772
							c-3.657,5.596-7.384,11.143-11.072,16.719l-5.546,8.353l-5.581,8.328l-11.185,16.644c-3.713,5.558-7.507,11.06-11.255,16.595
							l-11.277,16.58l-2.006-3.804l40.893,0.112l20.446,0.176l10.223,0.086l10.223,0.145l20.446,0.303l20.446,0.404l20.445,0.523
							l10.225,0.311l10.223,0.37l-10.223,0.372l-10.225,0.31l-20.445,0.526l-20.446,0.401l-20.446,0.303l-10.223,0.146
							l-10.223,0.086l-20.446,0.175l-40.893,0.112l-4.633,0.014l2.627-3.816l11.372-16.516c3.799-5.499,7.557-11.026,11.393-16.5
							l11.465-16.451l5.744-8.217l5.777-8.195c3.861-5.458,7.684-10.939,11.577-16.375l11.653-16.321l11.748-16.258l5.912-8.102
							L684.329,902.417z"/>
					</g>
				</g>
				<g>
					<g>
						<polygon fill="#D8E4E6" points="-201.104,1041.623 -102.471,897.504 77.006,897.504 -21.626,1041.623 						"/>
					</g>
					<g>
						<path fill="#ECF3F7" d="M-96.098,902.417l-5.364,8.479l-5.413,8.444l-10.898,16.839l-10.997,16.772
							c-3.657,5.596-7.384,11.143-11.072,16.719l-5.546,8.353l-5.582,8.328l-11.184,16.644c-3.713,5.558-7.506,11.06-11.255,16.595
							l-11.277,16.58l-2.006-3.804l40.893,0.112l20.446,0.176l10.223,0.086l10.223,0.145l20.446,0.303l20.446,0.404l20.446,0.523
							l10.224,0.311l10.223,0.37l-10.223,0.372l-10.224,0.31l-20.446,0.526l-20.446,0.401l-20.446,0.303l-10.223,0.146
							l-10.223,0.086l-20.446,0.175l-40.893,0.112l-4.633,0.014l2.627-3.816l11.372-16.516c3.8-5.499,7.557-11.026,11.393-16.5
							l11.464-16.451l5.744-8.217l5.777-8.195c3.86-5.458,7.683-10.939,11.577-16.375l11.651-16.321l11.749-16.258l5.913-8.102
							L-96.098,902.417z"/>
					</g>
				</g>
				<g>
					<g>
						<polygon fill="#D8E4E6" points="774.617,1041.623 873.25,897.504 1052.729,897.504 954.095,1041.623 						"/>
					</g>
					<g>
						<path fill="#ECF3F7" d="M879.624,902.417l-5.364,8.479l-5.413,8.444l-10.899,16.839l-10.995,16.772
							c-3.659,5.596-7.385,11.143-11.072,16.719l-5.546,8.353l-5.582,8.328l-11.185,16.644c-3.713,5.558-7.507,11.06-11.255,16.595
							l-11.278,16.58l-2.006-3.804l40.893,0.112l20.446,0.176l10.223,0.086l10.222,0.145l20.447,0.303l20.446,0.404l20.445,0.523
							l10.225,0.311l10.223,0.37l-10.223,0.372l-10.225,0.31l-20.445,0.526l-20.446,0.401l-20.447,0.303l-10.222,0.146
							l-10.223,0.086l-20.446,0.175l-40.893,0.112l-4.633,0.014l2.626-3.816l11.373-16.516c3.8-5.499,7.556-11.026,11.393-16.5
							l11.464-16.451l5.745-8.217l5.777-8.195c3.861-5.458,7.684-10.939,11.577-16.375L856,934.85l11.75-16.258l5.912-8.102
							L879.624,902.417z"/>
					</g>
				</g>
				<g>
					<g>
						<polygon fill="#D8E4E6" points="968.451,1041.623 1067.084,897.504 1246.561,897.504 1147.93,1041.623 						"/>
					</g>
					<g>
						<path fill="#ECF3F7" d="M1073.457,902.417l-5.363,8.479l-5.414,8.444l-10.898,16.839l-10.996,16.772
							c-3.656,5.596-7.383,11.143-11.072,16.719l-5.546,8.353l-5.581,8.328l-11.185,16.644c-3.714,5.558-7.507,11.06-11.257,16.595
							l-11.276,16.58l-2.008-3.804l40.895,0.112l20.444,0.176l10.225,0.086l10.223,0.145l20.446,0.303l20.444,0.404l20.445,0.523
							l10.225,0.311l10.224,0.37l-10.224,0.372l-10.225,0.31l-20.445,0.526l-20.444,0.401l-20.446,0.303l-10.223,0.146
							l-10.225,0.086l-20.444,0.175l-40.895,0.112l-4.632,0.014l2.628-3.816l11.371-16.516c3.8-5.499,7.557-11.026,11.393-16.5
							l11.464-16.451l5.745-8.217l5.776-8.195c3.861-5.458,7.685-10.939,11.577-16.375l11.653-16.321l11.748-16.258l5.912-8.102
							L1073.457,902.417z"/>
					</g>
				</g>
				<g>
					<g>
						<g opacity="0.4">
							<g>
								<defs>
									<rect id="SVGID_13_" x="1449.969" y="864.646" width="470.651" height="142.496"/>
								</defs>
								<clipPath id="SVGID_14_">
									<use xlink:href="#SVGID_13_"  overflow="visible"/>
								</clipPath>
								<g clip-path="url(#SVGID_14_)">
									<polygon fill="#4E9EB5" points="1527.908,864.649 1449.973,1007.144 1935.368,988.71 1528.811,988.71 									"/>
								</g>
							</g>
						</g>
						<g>
							<rect x="1527.912" y="809.124" fill="#75C7D2" width="391.708" height="179.587"/>
						</g>
						<g>
							<polygon fill="#ECF3F7" points="1919.62,667.771 1589.223,667.771 1498.509,746.482 1919.62,746.482 							"/>
						</g>
						<g>
							<polygon fill="#75C7D2" points="1919.62,746.482 1498.509,746.482 1498.509,796.682 1527.912,796.682 1919.62,796.682 
															"/>
						</g>
						<g>
							<rect x="1527.912" y="796.68" fill="#4E9EB5" width="391.708" height="12.441"/>
						</g>
						<g>
							<polygon fill="#ECF3F7" points="1786.946,922.177 1702.156,914.252 1688.434,862.223 1786.946,862.223 							"/>
						</g>
						<g>
							<path fill="#4E9EB5" d="M1771.74,880.21h-61.16c-0.825,0-1.494-0.669-1.494-1.494c0-0.824,0.669-1.494,1.494-1.494h61.16
								c0.825,0,1.494,0.67,1.494,1.494C1773.234,879.541,1772.565,880.21,1771.74,880.21z"/>
						</g>
						<g>
							<path fill="#4E9EB5" d="M1771.74,890.493h-61.16c-0.825,0-1.494-0.669-1.494-1.494c0-0.824,0.669-1.494,1.494-1.494h61.16
								c0.825,0,1.494,0.67,1.494,1.494C1773.234,889.824,1772.565,890.493,1771.74,890.493z"/>
						</g>
						<g>
							<path fill="#4E9EB5" d="M1771.74,900.41h-61.16c-0.825,0-1.494-0.669-1.494-1.494s0.669-1.494,1.494-1.494h61.16
								c0.825,0,1.494,0.669,1.494,1.494S1772.565,900.41,1771.74,900.41z"/>
						</g>
					</g>
					<g>
						<g>
							<polygon fill="#B6DDE8" points="780.986,857.57 832.114,803.35 832.114,932.101 780.986,986.812 							"/>
						</g>
						<g>
							<g>
								<path fill="#91B0D5" d="M942.062,841.09c0,0-47.958-2.579-57.077,56.544l31.283,13.696c0,0,21.734-39.695,36.989-30.028
									c0,0,13.104,4.666,11.303,10.811c-1.803,6.142-3.193,25.459-19.032,28.997l22.29,11.478c0,0,40.008-27.625,23.251-53.478
									C991.068,879.108,984.36,853.989,942.062,841.09"/>
							</g>
							<g>
								<path fill="#030202" d="M970.555,935.241l-32.188-17.459l9.06-2.653c15.352-4.495,14.858-20.529,14.499-24.443
									c-3.9-5.501-8.054-8.288-12.357-8.288c-12.528,0-26.167,22.022-30.365,30.509l-1.485,3.002l-37.651-12.061l1.003-3.605
									c7.688-27.631,24.111-60.566,58.691-60.566c18.501,0,33.29,9.717,33.911,10.13c17.771,11.94,26.785,25.366,26.799,39.91
									c0.024,25.037-26.817,43.434-27.96,44.205L970.555,935.241z M957.231,919.162l12.788,6.937
									c5.732-4.413,22.703-18.955,22.67-36.401c-0.023-11.787-7.878-23.033-23.346-33.425c-0.116-0.077-13.501-8.815-29.583-8.815
									c-23.043,0-39.904,17.245-50.155,51.276l24.176,7.745c4.774-8.759,18.961-31.862,35.785-31.862
									c7.243,0,13.748,4.199,19.335,12.479l0.489,0.726l0.132,0.866C970.72,896.557,969.225,911.413,957.231,919.162z"/>
							</g>
							<g>
								<g opacity="0.6">
									<g>
										<defs>
											<rect id="SVGID_15_" x="896.226" y="867.355" width="70.585" height="43.976"/>
										</defs>
										<clipPath id="SVGID_16_">
											<use xlink:href="#SVGID_15_"  overflow="visible"/>
										</clipPath>
										<g clip-path="url(#SVGID_16_)">
											<path fill="#808C9A" d="M966.813,886.932c0,0,0.87-28.759-36.603-16.559l-33.988,34.858l20.044,6.101l24.402-31.373
												C940.669,879.959,951.127,877.345,966.813,886.932"/>
										</g>
									</g>
								</g>
								<g>
									<g opacity="0.6">
										<g>
											<defs>
												<rect id="SVGID_17_" x="971.014" y="767.559" width="5.096" height="5.096"/>
											</defs>
											<clipPath id="SVGID_18_">
												<use xlink:href="#SVGID_17_"  overflow="visible"/>
											</clipPath>
											<g clip-path="url(#SVGID_18_)">
												<path fill="#808C9A" d="M976.11,770.107c0,1.408-1.141,2.549-2.55,2.549c-1.41,0-2.55-1.142-2.55-2.549
													c0-1.41,1.14-2.549,2.55-2.549S976.11,768.697,976.11,770.107"/>
											</g>
										</g>
									</g>
									<g>
										<g opacity="0.6">
											<g>
												<defs>
													<rect id="SVGID_19_" x="979.956" y="790.543" width="5.097" height="5.096"/>
												</defs>
												<clipPath id="SVGID_20_">
													<use xlink:href="#SVGID_19_"  overflow="visible"/>
												</clipPath>
												<g clip-path="url(#SVGID_20_)">
													<path fill="#808C9A" d="M985.056,793.09c0,1.408-1.14,2.551-2.55,2.551c-1.407,0-2.551-1.143-2.551-2.551
														s1.143-2.549,2.551-2.549C983.916,790.541,985.056,791.683,985.056,793.09"/>
												</g>
											</g>
										</g>
										<g>
											<g opacity="0.6">
												<g>
													<defs>
														<rect id="SVGID_21_" x="981.228" y="816.078" width="5.105" height="5.104"/>
													</defs>
													<clipPath id="SVGID_22_">
														<use xlink:href="#SVGID_21_"  overflow="visible"/>
													</clipPath>
													<g clip-path="url(#SVGID_22_)">
														<path fill="#808C9A" d="M986.328,818.631c0,1.408-1.141,2.551-2.549,2.551c-1.409,0-2.55-1.143-2.55-2.551
															s1.141-2.549,2.55-2.549C985.189,816.082,986.328,817.223,986.328,818.631"/>
													</g>
												</g>
											</g>
											<g>
												<g opacity="0.6">
													<g>
														<defs>
															<rect id="SVGID_23_" x="977.397" y="841.621" width="5.104" height="5.098"/>
														</defs>
														<clipPath id="SVGID_24_">
															<use xlink:href="#SVGID_23_"  overflow="visible"/>
														</clipPath>
														<g clip-path="url(#SVGID_24_)">
															<path fill="#808C9A" d="M982.499,844.17c0,1.406-1.142,2.549-2.551,2.549c-1.408,0-2.55-1.141-2.55-2.549
																c0-1.409,1.141-2.551,2.55-2.551S982.499,842.761,982.499,844.17"/>
														</g>
													</g>
												</g>
												<g>
													<path fill="#808C9A" d="M970.498,934.051l-29.478-15.988l6.69-1.959c7.501-2.193,12.324-7.194,14.335-14.858
														c1.271-4.843,1.015-9.339,0.861-10.936c-4.145-5.926-8.629-8.932-13.34-8.932c-13.073,0-27.01,22.433-31.276,31.075
														l-1.098,2.221l-35.887-11.496l0.742-2.663c6.039-21.703,14.806-37.753,26.055-47.7
														c9.096-8.045,19.747-12.124,31.655-12.124c18.201,0,32.739,9.556,33.348,9.96
														c17.472,11.738,26.334,24.881,26.347,39.065c0.01,10.228-4.778,20.989-13.848,31.126
														c-6.725,7.517-13.384,12.044-13.665,12.234L970.498,934.051z M955.181,919.207l14.932,8.099
														c5.253-3.963,23.625-19.141,23.595-37.603c-0.021-12.148-8.028-23.682-23.797-34.275
														c-0.123-0.082-13.738-8.989-30.151-8.989c-10.464,0-19.834,3.594-27.847,10.68
														c-9.954,8.802-17.875,23.017-23.564,42.281l25.944,8.311c1.65-3.041,4.976-8.794,9.424-14.609
														c8.864-11.59,17.562-17.466,25.853-17.466c6.885,0,13.106,4.046,18.492,12.031l0.36,0.535l0.098,0.639
														c0.039,0.265,0.96,6.541-0.862,13.665C965.72,910.067,961.456,915.748,955.181,919.207"/>
												</g>
												<g>
													<g opacity="0.4">
														<g>
															<defs>
																<rect id="SVGID_25_" x="717.815" y="898.145" width="355.124" height="96.629"/>
															</defs>
															<clipPath id="SVGID_26_">
																<use xlink:href="#SVGID_25_"  overflow="visible"/>
															</clipPath>
															<g clip-path="url(#SVGID_26_)">
																<polygon fill="#4E9EB5" points="780.986,898.146 717.815,994.773 1072.934,984.514 780.986,984.514 
																																	"/>
															</g>
														</g>
													</g>
													<g>
														<rect x="832.113" y="800.563" fill="#4E9EB5" width="290.917" height="129.24"/>
													</g>
													<g>
														<polygon fill="#B6DDE8" points="1072.934,855.274 1124.062,801.055 1123.029,929.804 1072.934,984.514 														
															"/>
													</g>
													<g>
														<rect x="920.419" y="768.924" fill="#D1D2D3" width="6.11" height="90.48"/>
													</g>
													<g>
														
															<rect x="859.835" y="815.022" transform="matrix(0.4067 0.9136 -0.9136 0.4067 1284.3331 -341.4802)" fill="#D1D2D3" width="90.478" height="6.11"/>
													</g>
													<g>
														
															<rect x="844.61" y="826.077" transform="matrix(0.7432 0.6691 -0.6691 0.7432 783.3215 -382.457)" fill="#D1D2D3" width="90.483" height="6.111"/>
													</g>
													<g>
														
															<rect x="835.207" y="842.37" transform="matrix(0.9511 0.309 -0.309 0.9511 304.3141 -230.6801)" fill="#D1D2D3" width="90.481" height="6.111"/>
													</g>
													<g>
														
															<rect x="875.425" y="818.892" transform="matrix(0.1046 0.9945 -0.9945 0.1046 1645.988 -99.9139)" fill="#D1D2D3" width="6.111" height="90.484"/>
													</g>
													<g>
														
															<rect x="881.239" y="836.785" transform="matrix(0.5 0.866 -0.866 0.5 1206.0325 -324.8008)" fill="#D1D2D3" width="6.111" height="90.484"/>
													</g>
													<g>
														
															<rect x="893.826" y="850.764" transform="matrix(0.8091 0.5877 -0.5877 0.8091 697.7675 -356.0227)" fill="#D1D2D3" width="6.11" height="90.487"/>
													</g>
													<g>
														
															<rect x="911.014" y="858.416" transform="matrix(0.9781 0.2079 -0.2079 0.9781 207.8643 -170.3037)" fill="#D1D2D3" width="6.111" height="90.49"/>
													</g>
													<g>
														
															<rect x="887.635" y="900.606" transform="matrix(0.2079 0.9781 -0.9781 0.2079 1622.8403 -196.7142)" fill="#D1D2D3" width="90.491" height="6.109"/>
													</g>
													<g>
														
															<rect x="904.823" y="892.952" transform="matrix(0.5878 0.809 -0.809 0.5878 1116.5287 -399.272)" fill="#D1D2D3" width="90.488" height="6.11"/>
													</g>
													<g>
														
															<rect x="917.412" y="878.973" transform="matrix(0.866 0.5 -0.5 0.866 570.0112 -363.1671)" fill="#D1D2D3" width="90.489" height="6.109"/>
													</g>
													<g>
														
															<rect x="923.226" y="861.079" transform="matrix(0.9945 0.1045 -0.1045 0.9945 95.6458 -96.5114)" fill="#D1D2D3" width="90.489" height="6.111"/>
													</g>
													<g>
														
															<rect x="963.448" y="800.181" transform="matrix(0.3088 0.9511 -0.9511 0.3088 1472.1102 -334.9272)" fill="#D1D2D3" width="6.109" height="90.485"/>
													</g>
													<g>
														
															<rect x="954.041" y="783.89" transform="matrix(0.6692 0.7431 -0.7431 0.6692 932.6853 -436.9238)" fill="#D1D2D3" width="6.11" height="90.484"/>
													</g>
													<g>
														
															<rect x="938.82" y="772.832" transform="matrix(0.9135 0.4068 -0.4068 0.9135 414.2736 -312.4175)" fill="#D1D2D3" width="6.112" height="90.484"/>
													</g>
													<g>
														<path fill="#F1F1F1" d="M934.874,859.404c0,6.293-5.102,11.398-11.4,11.398c-6.294,0-11.396-5.105-11.396-11.398
															c0-6.297,5.102-11.398,11.396-11.398C929.773,848.006,934.874,853.107,934.874,859.404"/>
													</g>
													<g>
														<path fill="#424143" d="M923.474,753.242c-58.629,0-106.161,47.532-106.161,106.162
															c0,58.629,47.531,106.159,106.161,106.159c58.633,0,106.161-47.53,106.161-106.159
															C1029.635,800.774,982.107,753.242,923.474,753.242 M923.474,954.587c-52.568,0-95.183-42.61-95.183-95.183
															s42.614-95.187,95.183-95.187c52.568,0,95.19,42.614,95.19,95.187C1018.664,911.976,976.042,954.587,923.474,954.587"
															/>
													</g>
													<g>
														<path fill="#F1F1F1" d="M923.474,764.218c-52.568,0-95.183,42.614-95.183,95.187
															c0,52.571,42.614,95.183,95.183,95.183c52.568,0,95.19-42.61,95.19-95.183S976.042,764.218,923.474,764.218
															 M923.474,945.853c-47.744,0-86.448-38.705-86.448-86.448c0-47.746,38.704-86.453,86.448-86.453
															c47.75,0,86.451,38.707,86.451,86.453C1009.927,907.147,971.224,945.853,923.474,945.853"/>
													</g>
													<g>
														<rect x="962.416" y="768.924" fill="#D1D2D3" width="6.11" height="90.48"/>
													</g>
													<g>
														
															<rect x="901.831" y="815.021" transform="matrix(0.4067 0.9135 -0.9135 0.4067 1309.2137 -379.8569)" fill="#D1D2D3" width="90.48" height="6.111"/>
													</g>
													<g>
														
															<rect x="886.607" y="826.077" transform="matrix(0.7432 0.6691 -0.6691 0.7432 794.0986 -410.5562)" fill="#D1D2D3" width="90.484" height="6.111"/>
													</g>
													<g>
														
															<rect x="877.204" y="842.37" transform="matrix(0.9511 0.309 -0.309 0.9511 306.3746 -243.6595)" fill="#D1D2D3" width="90.48" height="6.11"/>
													</g>
													<g>
														
															<rect x="917.422" y="818.892" transform="matrix(0.1045 0.9945 -0.9945 0.1045 1683.6721 -141.6196)" fill="#D1D2D3" width="6.111" height="90.484"/>
													</g>
													<g>
														
															<rect x="923.236" y="836.785" transform="matrix(0.5 0.866 -0.866 0.5 1227.0314 -361.1711)" fill="#D1D2D3" width="6.111" height="90.484"/>
													</g>
													<g>
														
															<rect x="935.823" y="850.763" transform="matrix(0.8091 0.5877 -0.5877 0.8091 705.8443 -380.7134)" fill="#D1D2D3" width="6.11" height="90.488"/>
													</g>
													<g>
														
															<rect x="953.01" y="858.416" transform="matrix(0.9781 0.2079 -0.2079 0.9781 208.8 -179.048)" fill="#D1D2D3" width="6.11" height="90.49"/>
													</g>
													<g>
														
															<rect x="929.632" y="900.606" transform="matrix(0.2079 0.9781 -0.9781 0.2079 1656.0997 -237.7972)" fill="#D1D2D3" width="90.491" height="6.11"/>
													</g>
													<g>
														
															<rect x="946.82" y="892.952" transform="matrix(0.5878 0.809 -0.809 0.5878 1133.8691 -433.2441)" fill="#D1D2D3" width="90.487" height="6.11"/>
													</g>
													<g>
														
															<rect x="959.409" y="878.972" transform="matrix(0.866 0.5 -0.5 0.866 575.6484 -384.1697)" fill="#D1D2D3" width="90.488" height="6.11"/>
													</g>
													<g>
														
															<rect x="965.223" y="861.079" transform="matrix(0.9945 0.1045 -0.1045 0.9945 95.878 -100.9039)" fill="#D1D2D3" width="90.487" height="6.111"/>
													</g>
													<g>
														
															<rect x="1005.444" y="800.181" transform="matrix(0.3091 0.951 -0.951 0.3091 1500.7657 -375.0204)" fill="#D1D2D3" width="6.11" height="90.485"/>
													</g>
													<g>
														
															<rect x="996.037" y="783.891" transform="matrix(0.6692 0.7431 -0.7431 0.6692 946.5765 -468.1292)" fill="#D1D2D3" width="6.11" height="90.482"/>
													</g>
													<g>
														
															<rect x="980.816" y="772.832" transform="matrix(0.9135 0.4068 -0.4068 0.9135 417.9059 -329.5023)" fill="#D1D2D3" width="6.112" height="90.483"/>
													</g>
													<g>
														<path fill="#F1F1F1" d="M976.87,859.404c0,6.293-5.101,11.398-11.399,11.398c-6.297,0-11.396-5.105-11.396-11.398
															c0-6.297,5.1-11.398,11.396-11.398C971.77,848.006,976.87,853.107,976.87,859.404"/>
													</g>
													<g>
														<path fill="#424143" d="M965.471,753.242c-58.63,0-106.159,47.532-106.159,106.162
															c0,58.629,47.529,106.159,106.159,106.159c58.634,0,106.162-47.53,106.162-106.159
															C1071.633,800.774,1024.104,753.242,965.471,753.242 M965.471,954.587c-52.569,0-95.183-42.61-95.183-95.183
															s42.615-95.187,95.183-95.187c52.568,0,95.188,42.614,95.188,95.187
															C1060.659,911.976,1018.039,954.587,965.471,954.587"/>
													</g>
													<g>
														<path fill="#F1F1F1" d="M965.471,764.218c-52.569,0-95.183,42.614-95.183,95.187
															c0,52.571,42.615,95.183,95.183,95.183c52.568,0,95.188-42.61,95.188-95.183S1018.039,764.218,965.471,764.218
															 M965.471,945.853c-47.743,0-86.448-38.705-86.448-86.448c0-47.746,38.705-86.453,86.448-86.453
															c47.749,0,86.451,38.707,86.451,86.453C1051.922,907.147,1013.22,945.853,965.471,945.853"/>
													</g>
													<g>
														<rect x="780.986" y="855.274" fill="#75C7D2" width="291.947" height="129.241"/>
													</g>
													<g>
														<polygon fill="#ECF3F7" points="1043.835,949.895 974.878,945.342 974.878,896.008 1043.835,896.008 														
															"/>
													</g>
													<g>
														<path fill="#4E9EB5" d="M1037.655,906.144h-48.909c-0.824,0-1.494-0.669-1.494-1.493c0-0.825,0.67-1.494,1.494-1.494
															h48.909c0.825,0,1.494,0.669,1.494,1.494C1039.149,905.475,1038.48,906.144,1037.655,906.144z"/>
													</g>
													<g>
														<path fill="#4E9EB5" d="M1026.541,918.023h-37.795c-0.726,0-1.312-0.588-1.312-1.313s0.587-1.312,1.312-1.312h37.795
															c0.727,0,1.313,0.587,1.313,1.312S1027.268,918.023,1026.541,918.023z"/>
													</g>
												</g>
											</g>
											<g>
												<g>
													<g opacity="0.6">
														<g>
															<defs>
																<rect id="SVGID_27_" x="159.54" y="903.058" width="39.443" height="62.924"/>
															</defs>
															<clipPath id="SVGID_28_">
																<use xlink:href="#SVGID_27_"  overflow="visible"/>
															</clipPath>
															<g clip-path="url(#SVGID_28_)">
																<path fill="#808C9A" d="M165.899,962.533c0,0-27.875-71.444,33.083-57.723c0,0-17.552-6.122-22.729,7.683
																	c0,0-4.316,21.569,5.177,43.138l-12.941,10.354L165.899,962.533z"/>
															</g>
														</g>
													</g>
													<g>
														<path fill="#808C9A" d="M152.118,979.353l-1.583-2.333c-18.3-26.967-24.047-50.394-17.08-69.626
															c3.831-10.575,11.681-19.822,22.701-26.745c8.251-5.184,15.343-7.251,15.64-7.336
															c7.898-2.236,15.205-3.37,21.725-3.37c12.436,0,22.365,4.046,29.514,12.026
															c15.173,16.936,12.237,45.397,12.104,46.599l-0.194,1.768l-31.873,12.384l2.889-6.494
															c3.238-7.282,2.529-14.329-2.105-20.948c-2.928-4.183-6.598-6.946-7.939-7.881c-1.157-0.106-2.269-0.161-3.32-0.161
															c-6.373,0-10.728,1.909-13.309,5.843c-7.141,10.869,0.78,35.178,4.435,43.625l1.001,2.314L152.118,979.353z
															 M193.519,875.8c-5.979,0-12.749,1.061-20.117,3.147c-0.249,0.072-26.285,7.845-34.455,30.484
															c-6.071,16.823-1.068,37.655,14.873,61.954l23.573-14.703c-1.215-3.123-3.335-9.039-4.909-15.883
															c-3.168-13.782-2.529-24.188,1.899-30.936c3.7-5.634,9.825-8.489,18.212-8.489c1.474,0,3.042,0.089,4.659,0.269
															l0.655,0.071l0.561,0.348c0.232,0.143,5.72,3.566,10.06,9.681c4.608,6.492,6.213,13.557,4.768,20.718l16.145-6.273
															c0.355-6.213,0.651-27.576-10.789-40.326C212.665,879.183,204.207,875.8,193.519,875.8"/>
													</g>
													<g>
														<g opacity="0.4">
															<g>
																<defs>
																	<rect id="SVGID_29_" x="57.116" y="909.552" width="394.995" height="115.956"/>
																</defs>
																<clipPath id="SVGID_30_">
																	<use xlink:href="#SVGID_29_"  overflow="visible"/>
																</clipPath>
																<g clip-path="url(#SVGID_30_)">
																	<polygon fill="#4E9EB5" points="120.535,909.554 57.116,1025.51 452.112,1010.51 121.271,1010.51 
																																			"/>
																</g>
															</g>
														</g>
														<g>
															<rect x="121.271" y="838.432" fill="#75C7D2" width="330.841" height="172.078"/>
														</g>
														<g>
															<polygon fill="#B6DDE8" points="452.112,838.432 512.018,781.369 512.018,920.869 452.112,1010.51 															
																"/>
														</g>
														<g>
															<rect x="121.271" y="854.243" fill="#4E9EB5" width="330.841" height="10.124"/>
														</g>
														<g>
															<polygon fill="#4E9EB5" points="458.911,846.742 512.018,811.495 512.018,817.868 452.112,864.367 452.112,854.243 
																															"/>
														</g>
														<g>
															<polygon fill="#ECF3F7" points="468.701,813.395 535.947,749.344 171.164,749.344 97.343,813.395 															"/>
														</g>
														<g>
															<rect x="97.343" y="813.395" fill="#75C7D2" width="370.443" height="40.849"/>
														</g>
														<g>
															<polygon fill="#B6DDE8" points="467.787,813.395 535.947,749.344 535.947,788.367 467.787,854.244 															
																"/>
														</g>
														<g>
															<polygon fill="#ECF3F7" points="237.001,957.176 137.293,962.637 137.293,886.305 237.001,886.305 															
																"/>
														</g>
														<g>
															<path fill="#4E9EB5" d="M217.412,897.434h-67.875c-0.826,0-1.494-0.669-1.494-1.494s0.668-1.494,1.494-1.494h67.875
																c0.826,0,1.494,0.669,1.494,1.494S218.237,897.434,217.412,897.434z"/>
														</g>
														<g>
															<path fill="#4E9EB5" d="M217.412,908.861h-67.875c-0.826,0-1.494-0.669-1.494-1.494c0-0.824,0.668-1.493,1.494-1.493
																h67.875c0.826,0,1.494,0.669,1.494,1.493C218.906,908.192,218.237,908.861,217.412,908.861z"/>
														</g>
														<g>
															<path fill="#4E9EB5" d="M195.678,920.029h-46.141c-0.681,0-1.231-0.552-1.231-1.231s0.551-1.231,1.231-1.231h46.141
																c0.68,0,1.231,0.552,1.231,1.231S196.358,920.029,195.678,920.029z"/>
														</g>
														<g>
															<path fill="#4E9EB5" d="M169.288,939.484c0,4.497-3.647,8.146-8.145,8.146c-4.499,0-8.145-3.648-8.145-8.146
																c0-4.498,3.646-8.146,8.145-8.146C165.641,931.339,169.288,934.986,169.288,939.484"/>
														</g>
													</g>
												</g>
											</g>
										</g>
									</g>
								</g>
							</g>
						</g>
					</g>
				</g>
			</g>
		</g>
	</g>
</g>
</svg>
